<svg xmlns="http://www.w3.org/2000/svg" width="615" height="600" fill="none"><path stroke="#3650D8" d="M104.605 168.848c-59.385-30.668-68.16 69.118-74.06 118.725 6.917 20.662 15.004 72.903 47.319 72.145 40.393-.947 76.57 43.612 93.166 79.355s93.768 56.065 100.796 19.229c7.027-36.836 73.199 57.74 109.252 20.843s49.263-82.734 85.597-121.105c36.335-38.371 21.837-58.434 13.866-72.68-7.972-14.246-7.78-49.332-31.249-97.075S305.853-3.383 264.105 53.188c-36.228 49.091-104.822 143.897-159.5 115.66Z"/><path stroke="#3650D8" d="M114.605 178.848c-59.385-30.668-68.16 69.118-74.06 118.725 6.917 20.662 15.004 72.903 47.319 72.145 40.393-.947 76.57 43.612 93.166 79.355s93.768 56.065 100.796 19.229c7.027-36.836 73.199 57.74 109.252 20.843s49.263-82.734 85.597-121.105c36.335-38.371 21.837-58.434 13.866-72.68-7.972-14.246-7.78-49.332-31.249-97.075S315.853 6.617 274.105 63.188c-36.228 49.091-104.822 143.897-159.5 115.66Z"/><path stroke="#3650D8" d="M124.605 188.848c-59.385-30.668-68.16 69.118-74.06 118.725 6.917 20.662 15.004 72.903 47.319 72.145 40.393-.947 76.57 43.612 93.166 79.355s93.768 56.065 100.796 19.229c7.027-36.836 73.199 57.74 109.252 20.843s49.263-82.734 85.597-121.105c36.335-38.371 21.837-58.434 13.866-72.68-7.972-14.246-7.78-49.332-31.249-97.075S325.853 16.617 284.105 73.188c-36.228 49.091-104.822 143.897-159.5 115.66Z"/><path stroke="#3650D8" d="M134.605 198.848c-59.385-30.668-68.16 69.118-74.06 118.725 6.917 20.662 15.004 72.903 47.319 72.145 40.393-.947 76.57 43.612 93.166 79.355s93.768 56.065 100.796 19.229c7.027-36.836 73.199 57.74 109.252 20.843s49.263-82.734 85.597-121.105c36.335-38.371 21.837-58.434 13.866-72.68-7.972-14.246-7.78-49.332-31.249-97.075S335.853 26.617 294.105 83.188c-36.228 49.091-104.822 143.897-159.5 115.66Z"/><path stroke="#3650D8" d="M144.605 208.848c-59.385-30.668-68.16 69.118-74.06 118.725 6.917 20.662 15.004 72.903 47.319 72.145 40.393-.947 76.57 43.612 93.166 79.355s93.768 56.065 100.796 19.229c7.027-36.836 73.199 57.74 109.252 20.843s49.263-82.734 85.597-121.105c36.335-38.371 21.837-58.434 13.866-72.68-7.972-14.246-7.78-49.332-31.249-97.075S345.853 36.617 304.105 93.188c-36.228 49.091-104.822 143.897-159.5 115.66Z"/><path stroke="#3650D8" d="M154.605 218.848c-59.385-30.668-68.16 69.118-74.06 118.725 6.917 20.662 15.004 72.903 47.319 72.145 40.393-.947 76.57 43.612 93.166 79.355s93.768 56.065 100.796 19.229c7.027-36.836 73.199 57.74 109.252 20.843s49.263-82.734 85.597-121.105c36.335-38.371 21.837-58.434 13.866-72.68-7.972-14.246-7.78-49.332-31.249-97.075S355.853 46.617 314.105 103.188c-36.228 49.091-104.822 143.897-159.5 115.66Z"/><path stroke="#3650D8" d="M164.605 228.848c-59.385-30.668-68.16 69.118-74.06 118.725 6.917 20.662 15.004 72.903 47.319 72.145 40.393-.947 76.57 43.612 93.166 79.355s93.768 56.065 100.796 19.229c7.027-36.836 73.199 57.74 109.252 20.843s49.263-82.734 85.597-121.105c36.335-38.371 21.837-58.434 13.866-72.68-7.972-14.246-7.78-49.332-31.249-97.075S365.853 56.617 324.105 113.188c-36.228 49.091-104.822 143.897-159.5 115.66Z"/><path stroke="#3650D8" d="M174.605 238.848c-59.385-30.668-68.159 69.118-74.06 118.725 6.917 20.662 15.004 72.903 47.319 72.145 40.393-.947 76.57 43.612 93.166 79.355s93.768 56.065 100.796 19.229c7.027-36.836 73.199 57.74 109.252 20.843s49.263-82.734 85.597-121.105c36.335-38.371 21.837-58.434 13.866-72.68-7.972-14.246-7.78-49.332-31.249-97.075S375.853 66.617 334.105 123.188c-36.228 49.091-104.822 143.897-159.5 115.66Z"/><path stroke="#3650D8" d="M184.605 248.848c-59.385-30.668-68.159 69.118-74.06 118.725 6.917 20.662 15.004 72.903 47.319 72.145 40.393-.947 76.57 43.612 93.166 79.355s93.768 56.065 100.796 19.229c7.027-36.836 73.199 57.74 109.252 20.843s49.263-82.734 85.597-121.105c36.335-38.371 21.837-58.434 13.866-72.68-7.972-14.246-7.78-49.332-31.249-97.075S385.853 76.617 344.105 133.188c-36.228 49.091-104.822 143.897-159.5 115.66Z"/></svg>