<svg width="615" height="600" viewBox="0 0 615 600" fill="none" xmlns="http://www.w3.org/2000/svg">
<path d="M104.605 168.848C45.2198 138.18 36.4456 237.966 30.5451 287.573C37.4623 308.235 45.5493 360.476 77.8637 359.718C118.257 358.771 154.434 403.33 171.03 439.073C187.626 474.816 264.798 495.138 271.826 458.302C278.853 421.466 345.025 516.042 381.078 479.145C417.131 442.247 430.341 396.411 466.675 358.04C503.01 319.669 488.512 299.606 480.541 285.36C472.569 271.114 472.761 236.028 449.292 188.285C425.823 140.541 305.853 -3.38297 264.105 53.1884C227.877 102.279 159.283 197.085 104.605 168.848Z" stroke="#E78364"></path>
<path d="M114.605 178.848C55.2198 148.18 46.4456 247.966 40.5451 297.573C47.4623 318.235 55.5493 370.476 87.8637 369.718C128.257 368.771 164.434 413.33 181.03 449.073C197.626 484.816 274.798 505.138 281.826 468.302C288.853 431.466 355.025 526.042 391.078 489.145C427.131 452.247 440.341 406.411 476.675 368.04C513.01 329.669 498.512 309.606 490.541 295.36C482.569 281.114 482.761 246.028 459.292 198.285C435.823 150.541 315.853 6.61703 274.105 63.1884C237.877 112.279 169.283 207.085 114.605 178.848Z" stroke="#E78364"></path>
<path d="M124.605 188.848C65.2198 158.18 56.4456 257.966 50.5451 307.573C57.4623 328.235 65.5493 380.476 97.8637 379.718C138.257 378.771 174.434 423.33 191.03 459.073C207.626 494.816 284.798 515.138 291.826 478.302C298.853 441.466 365.025 536.042 401.078 499.145C437.131 462.247 450.341 416.411 486.675 378.04C523.01 339.669 508.512 319.606 500.541 305.36C492.569 291.114 492.761 256.028 469.292 208.285C445.823 160.541 325.853 16.617 284.105 73.1884C247.877 122.279 179.283 217.085 124.605 188.848Z" stroke="#E78364"></path>
<path d="M134.605 198.848C75.2198 168.18 66.4456 267.966 60.5451 317.573C67.4623 338.235 75.5493 390.476 107.864 389.718C148.257 388.771 184.434 433.33 201.03 469.073C217.626 504.816 294.798 525.138 301.826 488.302C308.853 451.466 375.025 546.042 411.078 509.145C447.131 472.247 460.341 426.411 496.675 388.04C533.01 349.669 518.512 329.606 510.541 315.36C502.569 301.114 502.761 266.028 479.292 218.285C455.823 170.541 335.853 26.617 294.105 83.1884C257.877 132.279 189.283 227.085 134.605 198.848Z" stroke="#E78364"></path>
<path d="M144.605 208.848C85.2198 178.18 76.4456 277.966 70.5451 327.573C77.4623 348.235 85.5493 400.476 117.864 399.718C158.257 398.771 194.434 443.33 211.03 479.073C227.626 514.816 304.798 535.138 311.826 498.302C318.853 461.466 385.025 556.042 421.078 519.145C457.131 482.247 470.341 436.411 506.675 398.04C543.01 359.669 528.512 339.606 520.541 325.36C512.569 311.114 512.761 276.028 489.292 228.285C465.823 180.541 345.853 36.617 304.105 93.1884C267.877 142.279 199.283 237.085 144.605 208.848Z" stroke="#E78364"></path>
<path d="M154.605 218.848C95.2198 188.18 86.4456 287.966 80.5451 337.573C87.4623 358.235 95.5493 410.476 127.864 409.718C168.257 408.771 204.434 453.33 221.03 489.073C237.626 524.816 314.798 545.138 321.826 508.302C328.853 471.466 395.025 566.042 431.078 529.145C467.131 492.247 480.341 446.411 516.675 408.04C553.01 369.669 538.512 349.606 530.541 335.36C522.569 321.114 522.761 286.028 499.292 238.285C475.823 190.541 355.853 46.617 314.105 103.188C277.877 152.279 209.283 247.085 154.605 218.848Z" stroke="#E78364"></path>
<path d="M164.605 228.848C105.22 198.18 96.4456 297.966 90.5451 347.573C97.4623 368.235 105.549 420.476 137.864 419.718C178.257 418.771 214.434 463.33 231.03 499.073C247.626 534.816 324.798 555.138 331.826 518.302C338.853 481.466 405.025 576.042 441.078 539.145C477.131 502.247 490.341 456.411 526.675 418.04C563.01 379.669 548.512 359.606 540.541 345.36C532.569 331.114 532.761 296.028 509.292 248.285C485.823 200.541 365.853 56.617 324.105 113.188C287.877 162.279 219.283 257.085 164.605 228.848Z" stroke="#E78364"></path>
<path d="M174.605 238.848C115.22 208.18 106.446 307.966 100.545 357.573C107.462 378.235 115.549 430.476 147.864 429.718C188.257 428.771 224.434 473.33 241.03 509.073C257.626 544.816 334.798 565.138 341.826 528.302C348.853 491.466 415.025 586.042 451.078 549.145C487.131 512.247 500.341 466.411 536.675 428.04C573.01 389.669 558.512 369.606 550.541 355.36C542.569 341.114 542.761 306.028 519.292 258.285C495.823 210.541 375.853 66.617 334.105 123.188C297.877 172.279 229.283 267.085 174.605 238.848Z" stroke="#E78364"></path>
<path d="M184.605 248.848C125.22 218.18 116.446 317.966 110.545 367.573C117.462 388.235 125.549 440.476 157.864 439.718C198.257 438.771 234.434 483.33 251.03 519.073C267.626 554.816 344.798 575.138 351.826 538.302C358.853 501.466 425.025 596.042 461.078 559.145C497.131 522.247 510.341 476.411 546.675 438.04C583.01 399.669 568.512 379.606 560.541 365.36C552.569 351.114 552.761 316.028 529.292 268.285C505.823 220.541 385.853 76.617 344.105 133.188C307.877 182.279 239.283 277.085 184.605 248.848Z" stroke="#E78364"></path>
</svg>
