<svg width="440" height="417" viewBox="0 0 440 417" fill="none" xmlns="http://www.w3.org/2000/svg">
<path d="M107.042 78.743C59.3801 31.8861 21.4918 124.616 1.18678 170.259C1.6849 192.043 -6.03715 244.339 25.0564 253.17C63.9233 264.209 85.3072 317.474 90.5919 356.526C95.8766 395.578 163.589 437.81 181.194 404.7C198.799 371.589 239.495 363.214 284.846 338.627C330.197 314.041 356.37 274.16 402.426 248.249C448.481 222.338 440.565 198.886 437.162 182.919C433.759 166.953 444.317 133.493 436.015 80.9445C427.714 28.3962 350.218 -26.278 293.609 15.4188C244.485 51.6018 150.924 121.885 107.042 78.743Z" fill="url('#paint0_linear_122_67')"></path>
<defs>
<linearGradient id="paint0_linear_122_67" x1="446.722" y1="177.6" x2="-17.0972" y2="-0.853305" gradientUnits="userSpaceOnUse">
<stop offset="0.217244" stop-color="#6EA8FF"></stop>
<stop offset="0.224951" stop-color="#6EA8FF"></stop>
<stop offset="1" stop-color="#2A1FC6"></stop>
</linearGradient>
</defs>
</svg>
