<svg xmlns="http://www.w3.org/2000/svg" width="225" height="40" fill="none"><path fill="#0C1A3D" d="M58.269 27.349V8.159h7.482q1.82 0 3.034.731c.809.488 1.456 1.139 1.86 1.911.405.773.607 1.627.607 2.48 0 1.057-.243 1.952-.768 2.724-.526.773-1.214 1.26-2.104 1.545l-.04-.65c1.213.285 2.144.894 2.79 1.748.648.854.971 1.911.971 3.05s-.242 2.114-.687 2.927c-.445.854-1.092 1.463-1.942 1.951-.849.448-1.9.692-3.074.692h-8.13zm2.83-11.344h4.652c.526 0 .971-.122 1.375-.325.405-.203.728-.528.971-.894.243-.407.364-.854.364-1.423q0-1.098-.728-1.83c-.485-.488-1.173-.732-1.982-.732H61.1zm0 8.701h4.976q.91 0 1.699-.366c.485-.244.89-.569 1.173-1.016s.444-.976.444-1.586c0-.57-.12-1.098-.364-1.545-.242-.447-.606-.854-1.092-1.098-.485-.284-1.01-.406-1.658-.406H61.14v6.017zM75.094 27.349V8.159h2.75v16.547h8.615v2.602H75.094zM96.327 27.756c-1.497 0-2.791-.326-3.964-.936a6.6 6.6 0 0 1-2.67-2.602c-.647-1.098-.97-2.44-.97-3.943V8.199h2.79v11.954c0 .813.122 1.545.405 2.154.283.61.647 1.139 1.092 1.545.445.407.97.732 1.537.936a5.1 5.1 0 0 0 1.739.325c.607 0 1.173-.122 1.74-.325a4.6 4.6 0 0 0 1.536-.936c.445-.406.809-.935 1.092-1.545s.405-1.341.405-2.154V8.158h2.791v12.117c0 1.504-.324 2.805-.971 3.943-.647 1.098-1.537 1.992-2.67 2.602-1.051.61-2.386.936-3.883.936M107.652 27.349V8.159h6.836c.485 0 .97.04 1.415.121 1.456.204 2.67.732 3.641 1.627.97.894 1.698 1.992 2.184 3.334.485 1.341.728 2.846.728 4.472s-.243 3.13-.728 4.472c-.486 1.342-1.214 2.48-2.184 3.334-.971.895-2.185 1.423-3.641 1.627a16 16 0 0 1-1.415.08h-6.836zm2.022-1.87h3.762c.364 0 .769 0 1.173-.041q.606-.06 1.092-.122c1.092-.203 2.022-.65 2.71-1.342.688-.69 1.173-1.585 1.497-2.683q.485-1.586.485-3.537t-.485-3.538c-.324-1.057-.809-1.951-1.497-2.642q-1.032-1.037-2.669-1.342-.426-.122-1.093-.122c-.444-.04-.809-.04-1.173-.04h-3.802zM125.69 27.349V8.159h1.952v19.15h-1.952zM130.301 27.353l6.552-19.15h2.589l6.552 19.15h-2.022L137.743 9.3h.769l-6.189 18.053zm2.912-4.676v-1.83h9.869v1.83zM148.38 27.349V8.159h1.779l7.483 16.1 7.442-16.1h1.82v19.15h-1.82v-14.76l-6.795 14.8h-1.254l-6.795-14.8v14.8zM178.348 27.754c-1.901 0-3.519-.407-4.813-1.26a7.9 7.9 0 0 1-2.953-3.538c-.687-1.504-1.011-3.212-1.011-5.204s.324-3.7 1.011-5.204c.688-1.505 1.659-2.684 2.953-3.537 1.294-.854 2.912-1.26 4.813-1.26s3.519.406 4.813 1.26a7.9 7.9 0 0 1 2.953 3.537c.687 1.504 1.011 3.212 1.011 5.204s-.324 3.7-1.011 5.204c-.688 1.505-1.658 2.684-2.953 3.538-1.294.813-2.912 1.26-4.813 1.26m0-1.911c1.497 0 2.75-.325 3.721-1.017 1.011-.69 1.739-1.626 2.225-2.846.485-1.22.728-2.642.728-4.228s-.243-3.009-.728-4.228a6.28 6.28 0 0 0-2.225-2.846c-1.011-.692-2.224-1.017-3.721-1.058-1.496 0-2.75.326-3.721 1.017a6.28 6.28 0 0 0-2.225 2.846c-.485 1.22-.768 2.643-.768 4.228 0 1.586.243 3.01.728 4.229a6.28 6.28 0 0 0 2.224 2.846c1.012.732 2.266 1.057 3.762 1.057M189.795 27.349V8.159h1.942l10.516 15.693V8.158h1.942v19.15h-1.942l-10.516-15.734v15.734h-1.942zM207.915 27.349V8.159h6.836c.485 0 .97.04 1.415.121 1.456.204 2.67.732 3.64 1.627.971.894 1.699 1.992 2.185 3.334.485 1.341.728 2.846.728 4.472s-.243 3.13-.728 4.472c-.486 1.342-1.214 2.48-2.185 3.334-.97.895-2.184 1.423-3.64 1.627a16 16 0 0 1-1.415.08h-6.836zm2.022-1.87h3.762c.364 0 .768 0 1.173-.041q.606-.06 1.092-.122c1.092-.203 2.022-.65 2.71-1.342.688-.69 1.173-1.585 1.496-2.683q.486-1.586.486-3.537t-.486-3.538c-.323-1.057-.808-1.951-1.496-2.642q-1.031-1.037-2.67-1.342-.424-.122-1.092-.122c-.445-.04-.809-.04-1.173-.04h-3.761v15.409zM19.644 1.936l-5.056-.122L2.9 13.442l4.732.122h2.306l6.27-9.96z"/><path fill="#0C1A3D" d="m19.639 1.935-3.438 1.667-7.847 9.961h6.149L19.84 1.935zM48.927 15.925H36.874l-6.997 19.597z"/><path fill="#0C1A3D" d="m48.927 15.925-8.696 2.805-10.354 16.792zM2.898 15.925H14.91l7.037 19.597zM18.065 15.925h15.532l-8.09 22.646zM28.947 1.811l5.097 11.628h-8.535l-.606-9.188z"/><path fill="#0C1A3D" d="M22.842 1.811h6.107l-3.438 2.846v8.782h-7.887zM2.898 15.925l8.655 2.683 10.395 16.914zM18.065 15.925l7.766 2.846-.323 19.8zM31.733 1.936l5.056-.122 11.649 11.629-4.732.122H41.4l-6.27-9.962z"/><path fill="#0C1A3D" d="m31.737 1.936 3.398 1.667 7.846 9.96h-6.108L31.536 1.937z"/></svg>