<svg xmlns="http://www.w3.org/2000/svg" width="259" height="64" fill="none"><path fill="#0C1A3D" d="M72.52 41.954v-20.52h8.971c2.243 0 3.936.46 5.127 1.427 1.19.92 1.785 2.254 1.785 3.91 0 1.242-.367 2.3-1.099 3.129-.732.874-1.74 1.426-3.067 1.702v-.46c1.51.23 2.655.736 3.479 1.61s1.236 2.025 1.236 3.405c0 1.84-.641 3.22-1.877 4.233s-3.02 1.518-5.263 1.518H72.52zm3.57-11.824h4.715c1.327 0 2.334-.23 2.975-.736q.96-.759.96-2.209 0-1.449-.96-2.208c-.641-.506-1.648-.736-2.975-.736H76.09zm0 8.971h5.264c1.236 0 2.243-.23 2.93-.736.686-.46 1.052-1.242 1.052-2.346s-.366-1.886-1.053-2.393c-.686-.46-1.693-.736-2.929-.736h-5.263zM93.12 41.954v-20.52h3.752v17.391h9.612V42H93.119zM117.647 42.276c-2.929 0-5.08-.736-6.499-2.209-1.419-1.472-2.151-3.634-2.151-6.533v-12.1h3.753v12.1c0 1.84.412 3.22 1.19 4.141q1.167 1.38 3.707 1.38c1.602 0 2.838-.46 3.662-1.38q1.235-1.38 1.235-4.14v-12.1h3.662V33.58c0 2.899-.732 5.061-2.151 6.534-1.419 1.426-3.57 2.162-6.408 2.162M131.147 41.954v-20.52h13.777v2.945h-10.161v5.705h9.474v2.99h-9.52v5.981h10.161v2.99h-13.731zM150.461 41.954v-20.52h2.106l8.192 18.634h-.824l8.193-18.634h2.106V42h-2.197V24.517h.869l-7.735 17.437h-1.602l-7.781-17.437h.87v17.437zM174.579 31.696c0-2.162.366-4.049 1.099-5.613a8.5 8.5 0 0 1 3.203-3.634c1.419-.875 3.067-1.289 5.081-1.289 1.922 0 3.57.415 4.989 1.289a8.33 8.33 0 0 1 3.249 3.634c.778 1.565 1.145 3.405 1.145 5.567s-.367 4.049-1.145 5.613-1.876 2.807-3.249 3.68c-1.419.875-3.067 1.289-4.989 1.289-1.968 0-3.662-.414-5.035-1.288a8.4 8.4 0 0 1-3.204-3.68c-.732-1.611-1.144-3.405-1.144-5.568m2.517 0c0 2.623.595 4.693 1.74 6.211 1.144 1.473 2.883 2.209 5.126 2.209q3.226 0 5.08-2.209c1.19-1.472 1.831-3.542 1.831-6.21q0-4.004-1.785-6.212t-5.08-2.208c-2.243 0-3.982.736-5.127 2.208-1.235 1.472-1.785 3.543-1.785 6.211M205.794 42.23c-2.746 0-4.806-.69-6.179-2.116-1.327-1.427-2.014-3.497-2.014-6.258V21.434h2.38v12.284c0 2.117.458 3.727 1.373 4.785.916 1.058 2.38 1.61 4.394 1.61 1.877 0 3.341-.552 4.302-1.61 1.007-1.058 1.465-2.668 1.465-4.785V21.434h2.38v12.422c0 2.76-.687 4.831-2.06 6.258-1.327 1.426-3.387 2.116-6.041 2.116M218.881 41.954v-20.52h1.876l13.09 17.483h-.686V21.434h2.243V42h-1.877l-13.09-17.483h.641V42h-2.197zM245.52 41.954V23.459h-7.232v-2.025h16.843v2.025h-7.186v18.495zM11.054 32.794c.412.276 3.89 2.715 3.89 2.715L23.96 22.81h3.57l5.218-10.305 1.098-2.117c.55.276 13.09 7.132 13.822 20.152.274 5.06 6.178 8.695 12.082 11.088 1.098-3.083 1.74-6.395 1.74-9.846 0-15.735-12.724-28.525-28.376-28.525S4.738 16.047 4.738 31.782c0 2.576.32 5.06.961 7.407 2.7-3.45 5.172-6.533 5.355-6.395"/><path fill="#1B1A1A" d="M45.242 30.722c-.55-9.8-8.879-15.873-11.67-17.667.823 4.002 2.654 14.124-.367 14.262-3.707.138-8.33-.138-8.33-.138s1.145 4.049-2.013 5.199.732 2.07.732 2.07 3.158.506-2.883 5.245 6.041 1.427 7.323-3.726c1.281-5.2 10.023-1.427-1.144 9.385-6.179 5.981-8.376 9.018-9.108 10.582 4.394 2.806 9.611 4.463 15.195 4.463 11.396 0 21.19-6.763 25.72-16.471-6.91-2.945-13.089-7.177-13.455-13.204"/></svg>