<svg xmlns="http://www.w3.org/2000/svg" width="235" height="58" fill="none"><path fill="#0C1A3D" d="M64.758 38.526V15.717h2.346v9.961h-.243v12.889h-2.103zm7.685.488c-1.577 0-2.912-.407-3.964-1.18-1.092-.812-1.9-1.87-2.467-3.252-.566-1.382-.85-2.887-.85-4.594q0-2.622.85-4.635c.566-1.342 1.375-2.44 2.467-3.212s2.427-1.18 4.045-1.18c1.537 0 2.912.408 4.004 1.18 1.092.773 1.982 1.87 2.548 3.253.607 1.382.89 2.886.89 4.594 0 1.707-.283 3.252-.89 4.635-.606 1.382-1.456 2.44-2.588 3.253s-2.468 1.138-4.045 1.138m-.243-2.155c1.173 0 2.184-.285 2.953-.894.809-.61 1.375-1.423 1.78-2.48.404-1.058.606-2.196.606-3.497s-.202-2.44-.566-3.497c-.404-1.016-.97-1.87-1.78-2.44-.809-.609-1.82-.894-3.033-.894-1.173 0-2.184.285-2.953.854-.768.57-1.375 1.383-1.78 2.44-.404 1.016-.566 2.236-.566 3.578s.203 2.52.567 3.537c.404 1.057.97 1.87 1.78 2.44.808.569 1.779.853 2.992.853M84.414 38.53V15.235h2.305V38.57h-2.305zM98.61 38.978q-1.517 0-2.67-.488c-.768-.325-1.415-.732-1.941-1.301a6.5 6.5 0 0 1-1.294-1.83 10 10 0 0 1-.729-2.195c-.161-.773-.202-1.545-.202-2.318v-9.432h2.346v8.741c0 .935.081 1.83.283 2.602.162.814.486 1.505.85 2.114.364.61.89 1.058 1.537 1.383.606.325 1.375.488 2.265.488.809 0 1.537-.163 2.184-.447a4.6 4.6 0 0 0 1.577-1.22q.668-.794.971-1.952c.202-.772.324-1.626.324-2.602l1.658.366c0 1.748-.324 3.212-.93 4.432-.607 1.179-1.457 2.114-2.508 2.724-1.092.61-2.346.935-3.721.935m5.743-.447v-4.188h-.242v-12.93h2.305v17.118zM118.671 39.014c-1.659 0-3.115-.366-4.328-1.098s-2.144-1.789-2.831-3.13c-.688-1.342-1.012-2.928-1.012-4.717 0-1.87.324-3.497 1.012-4.838a7.33 7.33 0 0 1 2.791-3.172c1.213-.731 2.629-1.097 4.287-1.097 1.699 0 3.114.406 4.328 1.179 1.173.772 2.103 1.91 2.71 3.334.606 1.463.89 3.171.849 5.204h-2.386v-.813c-.041-2.236-.526-3.903-1.416-5.042q-1.335-1.708-4.004-1.708c-1.82 0-3.236.61-4.207 1.79q-1.456 1.767-1.456 5.122c0 2.155.486 3.822 1.456 5.042.971 1.179 2.346 1.789 4.126 1.789 1.213 0 2.305-.285 3.195-.854.89-.57 1.618-1.382 2.144-2.44l2.144.854c-.688 1.505-1.659 2.643-2.993 3.456-1.335.813-2.751 1.139-4.409 1.139m-6.512-8.376v-1.951h13.024v1.951zM138.287 39.023c-1.74 0-3.236-.366-4.53-1.138-1.295-.732-2.306-1.79-3.074-3.13-.729-1.343-1.093-2.847-1.093-4.595q0-2.805 1.093-4.88c.728-1.382 1.698-2.439 2.993-3.211 1.253-.773 2.75-1.139 4.408-1.139 1.78 0 3.277.407 4.49 1.26 1.254.814 2.144 1.993 2.75 3.497.607 1.505.809 3.294.688 5.327h-3.762V29.63c0-1.87-.323-3.212-.97-4.066-.648-.853-1.659-1.3-3.034-1.3-1.577 0-2.71.487-3.478 1.463s-1.133 2.399-1.133 4.228c0 1.749.364 3.09 1.133 4.026.768.935 1.86 1.423 3.316 1.423q1.397 0 2.427-.61 1.032-.61 1.578-1.83l3.761 1.138c-.647 1.545-1.658 2.765-3.033 3.62-1.376.894-2.872 1.3-4.53 1.3m-5.865-7.969v-2.886h11.729v2.886zM148.881 38.53V21.415h3.398v5.326h.445V38.57h-3.843zm11.811 0v-8.212c0-.529-.04-1.139-.121-1.79a6.4 6.4 0 0 0-.526-1.91 4 4 0 0 0-1.214-1.505c-.525-.406-1.253-.569-2.143-.569q-.729 0-1.456.244c-.486.163-.89.447-1.295.813a4.6 4.6 0 0 0-.93 1.586q-.364 1.037-.364 2.561l-2.265-.975c0-1.464.283-2.765.849-3.985a7 7 0 0 1 2.468-2.846c1.092-.691 2.426-1.057 4.044-1.057 1.254 0 2.306.203 3.115.65a5.5 5.5 0 0 1 1.941 1.627c.486.65.85 1.342 1.092 2.114.243.732.364 1.423.445 2.114.081.65.122 1.18.122 1.627v9.554h-3.762zM175.78 39.023c-1.739 0-3.236-.366-4.53-1.138-1.294-.773-2.306-1.79-3.034-3.13-.728-1.343-1.092-2.847-1.092-4.595q0-2.805 1.092-4.88c.728-1.382 1.699-2.439 2.994-3.211 1.253-.773 2.75-1.139 4.408-1.139 1.78 0 3.276.407 4.49 1.26 1.254.814 2.144 1.993 2.75 3.497.607 1.505.809 3.294.688 5.327h-3.762V29.63c0-1.87-.323-3.212-.97-4.066-.648-.853-1.659-1.3-3.034-1.3-1.537 0-2.71.487-3.478 1.463s-1.133 2.399-1.133 4.228c0 1.749.364 3.09 1.133 4.026.768.935 1.86 1.423 3.316 1.423q1.396 0 2.427-.61t1.578-1.83l3.761 1.138c-.647 1.545-1.658 2.765-3.033 3.62-1.416.894-2.913 1.3-4.571 1.3m-5.865-7.969v-2.886h11.73v2.886zM186.417 38.526V21.409h3.357v4.188l-.405-.529c.203-.57.486-1.098.85-1.545a4.9 4.9 0 0 1 1.254-1.179 5.1 5.1 0 0 1 1.415-.691c.526-.163 1.052-.285 1.578-.285.526-.04 1.051 0 1.577.082v3.577c-.485-.162-1.092-.203-1.739-.162a3.84 3.84 0 0 0-1.78.569c-.526.285-.97.65-1.294 1.098a4.7 4.7 0 0 0-.728 1.504 6.7 6.7 0 0 0-.243 1.83v8.7h-3.842zM205.185 39.023c-1.578 0-2.953-.406-4.085-1.179-1.173-.813-2.063-1.87-2.71-3.253-.647-1.382-.971-2.886-.971-4.635q0-2.622.971-4.634c.647-1.342 1.577-2.44 2.75-3.212s2.589-1.18 4.207-1.18 2.993.407 4.085 1.18 1.941 1.87 2.507 3.212q.85 2.073.85 4.634c0 1.708-.283 3.253-.85 4.595-.566 1.382-1.415 2.44-2.548 3.252-1.132.814-2.548 1.22-4.206 1.22m.364 7.603c-.93 0-1.861-.162-2.71-.447a8.2 8.2 0 0 1-2.346-1.26 7.3 7.3 0 0 1-1.699-1.993l3.519-1.748c.324.61.769 1.098 1.375 1.382.607.285 1.214.448 1.901.448.809 0 1.497-.122 2.103-.407a3.57 3.57 0 0 0 1.457-1.22c.323-.528.485-1.22.485-2.033V34.47h.485V21.46h3.317v17.97c0 .448 0 .854-.04 1.261-.041.407-.081.773-.162 1.18-.243 1.097-.728 2.032-1.456 2.723q-1.092 1.097-2.67 1.586c-1.051.325-2.305.447-3.559.447m.242-11.018c1.012 0 1.861-.244 2.468-.691.606-.448 1.092-1.139 1.375-1.992.283-.854.445-1.83.445-2.928 0-1.138-.162-2.114-.445-2.927q-.424-1.281-1.335-1.952c-.607-.488-1.415-.691-2.386-.691-1.011 0-1.861.244-2.508.773-.647.487-1.132 1.179-1.456 2.032-.324.854-.485 1.79-.485 2.846 0 1.058.161 1.993.485 2.847s.769 1.544 1.416 2.032c.606.407 1.415.65 2.426.65M220.067 46.174l3.276-9.066.081 2.683-7.443-18.336h3.964l5.258 13.58h-1.011l5.137-13.621h3.802l-9.505 24.76zM55.096 33.445v-8.823l-7.2-2.48c-.202-.528-.444-1.057-.687-1.585l3.438-6.83-6.188-6.262-6.876 3.374c-.526-.244-1.052-.488-1.577-.69L33.619 2.91h-8.776l-2.386 6.953c-.688.244-1.376.487-2.023.813l-6.47-3.294-6.189 6.221 3.114 6.383a23 23 0 0 0-.97 2.277L3.245 24.5v8.823l6.674 2.318c.121.406.283.772.445 1.179l.485 1.097-3.155 6.343 6.188 6.22 6.35-3.13c.364.163.769.366 1.133.529.364.162.768.284 1.132.447l2.184 6.708h8.777l2.305-6.708c.768-.285 1.537-.61 2.265-.976l6.31 3.212 6.187-6.22-3.195-6.587c.283-.65.566-1.342.81-2.033zm-25.925 8.62c-5.42 0-9.788-4.432-9.788-9.84 0-1.992.566-3.821 1.577-5.366l8.25-13.01 7.807 12.4c.323.447.647.935.89 1.423a9.95 9.95 0 0 1 1.092 4.553c0 5.448-4.409 9.84-9.829 9.84"/></svg>