<svg width="259" height="64" viewBox="0 0 259 64" fill="none" xmlns="http://www.w3.org/2000/svg">
<path d="M72.5205 41.9538V21.4343H81.4913C83.734 21.4343 85.4275 21.8944 86.6175 22.8606C87.8075 23.7807 88.4025 25.115 88.4025 26.7712C88.4025 28.0134 88.0363 29.0716 87.304 29.8998C86.5717 30.7739 85.5648 31.326 84.2375 31.6021V31.142C85.7478 31.372 86.8921 31.8781 87.7159 32.7522C88.5398 33.6264 88.9517 34.7766 88.9517 36.1568C88.9517 37.9971 88.3109 39.3774 87.0752 40.3895C85.8394 41.4017 84.0544 41.9078 81.8117 41.9078H72.5205V41.9538ZM76.0905 30.1298H80.8048C82.1321 30.1298 83.139 29.8998 83.7798 29.3937C84.4205 28.8876 84.7409 28.1515 84.7409 27.1853C84.7409 26.2191 84.4205 25.483 83.7798 24.9769C83.139 24.4708 82.1321 24.2408 80.8048 24.2408H76.0905V30.1298ZM76.0905 39.1013H81.354C82.5898 39.1013 83.5967 38.8713 84.2832 38.3652C84.9698 37.9051 85.3359 37.123 85.3359 36.0188C85.3359 34.9146 84.9698 34.1325 84.2832 33.6264C83.5967 33.1663 82.5898 32.8903 81.354 32.8903H76.0905V39.1013Z" fill="#0C1A3D"></path>
<path d="M93.1194 41.9538V21.4343H96.8725V38.8253H106.484V41.9998H93.1194V41.9538Z" fill="#0C1A3D"></path>
<path d="M117.647 42.2759C114.718 42.2759 112.567 41.5397 111.148 40.0675C109.729 38.5952 108.997 36.4329 108.997 33.5344V21.4343H112.75V33.5344C112.75 35.3747 113.162 36.7549 113.94 37.6751C114.718 38.5952 115.954 39.0553 117.647 39.0553C119.249 39.0553 120.485 38.5952 121.309 37.6751C122.132 36.7549 122.544 35.3747 122.544 33.5344V21.4343H126.206V33.5804C126.206 36.4789 125.474 38.6413 124.055 40.1135C122.636 41.5397 120.485 42.2759 117.647 42.2759Z" fill="#0C1A3D"></path>
<path d="M131.147 41.9538V21.4343H144.924V24.3788H134.763V30.0838H144.237V33.0743H134.717V39.0553H144.878V42.0458H131.147V41.9538Z" fill="#0C1A3D"></path>
<path d="M150.461 41.9538V21.4343H152.567L160.759 40.0675H159.935L168.128 21.4343H170.234V41.9998H168.037V24.5169H168.906L161.171 41.9538H159.569L151.788 24.5169H152.658V41.9538H150.461Z" fill="#0C1A3D"></path>
<path d="M174.579 31.6962C174.579 29.5338 174.945 27.6475 175.678 26.0832C176.41 24.519 177.508 23.3228 178.881 22.4486C180.3 21.5745 181.948 21.1604 183.962 21.1604C185.884 21.1604 187.532 21.5745 188.951 22.4486C190.37 23.3228 191.468 24.519 192.2 26.0832C192.978 27.6475 193.345 29.4878 193.345 31.6502C193.345 33.8126 192.978 35.6989 192.2 37.2631C191.422 38.8274 190.324 40.0696 188.951 40.9438C187.532 41.8179 185.884 42.232 183.962 42.232C181.994 42.232 180.3 41.8179 178.927 40.9438C177.554 40.0696 176.456 38.8734 175.723 37.2631C174.991 35.6529 174.579 33.8586 174.579 31.6962ZM177.096 31.6962C177.096 34.3186 177.691 36.389 178.836 37.9072C179.98 39.3795 181.719 40.1156 183.962 40.1156C186.113 40.1156 187.806 39.3795 189.042 37.9072C190.232 36.435 190.873 34.3646 190.873 31.6962C190.873 29.0277 190.278 26.9574 189.088 25.4851C187.898 24.0129 186.205 23.2768 184.008 23.2768C181.765 23.2768 180.026 24.0129 178.881 25.4851C177.646 26.9574 177.096 29.0277 177.096 31.6962Z" fill="#0C1A3D"></path>
<path d="M205.794 42.2299C203.048 42.2299 200.988 41.5397 199.615 40.1135C198.288 38.6873 197.601 36.6169 197.601 33.8564V21.4343H199.981V33.7184C199.981 35.8348 200.439 37.445 201.354 38.5032C202.27 39.5614 203.734 40.1135 205.748 40.1135C207.625 40.1135 209.089 39.5614 210.05 38.5032C211.057 37.445 211.515 35.8348 211.515 33.7184V21.4343H213.895V33.8564C213.895 36.6169 213.208 38.6873 211.835 40.1135C210.508 41.5397 208.448 42.2299 205.794 42.2299Z" fill="#0C1A3D"></path>
<path d="M218.881 41.9538V21.4343H220.757L233.847 38.9173H233.161V21.4343H235.404V41.9998H233.527L220.437 24.5169H221.078V41.9998H218.881V41.9538Z" fill="#0C1A3D"></path>
<path d="M245.52 41.9538V23.4587H238.288V21.4343H255.131V23.4587H247.945V41.9538H245.52Z" fill="#0C1A3D"></path>
<path d="M11.0541 32.7941C11.466 33.0701 14.9443 35.5086 14.9443 35.5086L23.9603 22.8104H27.5302L32.7476 12.5046L33.846 10.3883C34.3952 10.6643 46.9353 17.5195 47.6676 30.5397C47.9422 35.6006 53.8461 39.2352 59.75 41.6276C60.8484 38.5451 61.4891 35.2325 61.4891 31.7819C61.4891 16.0472 48.766 3.25708 33.1137 3.25708C17.4615 3.25708 4.73828 16.0472 4.73828 31.7819C4.73828 34.3584 5.05865 36.8428 5.69938 39.1892C8.39963 35.7386 10.871 32.6561 11.0541 32.7941Z" fill="#0C1A3D"></path>
<path d="M45.2421 30.7217C44.6929 20.922 36.3633 14.849 33.5715 13.0547C34.3953 17.0574 36.226 27.1791 33.2054 27.3171C29.4983 27.4551 24.8758 27.1791 24.8758 27.1791C24.8758 27.1791 26.02 31.2278 22.8621 32.378C19.7042 33.5282 23.5944 34.4483 23.5944 34.4483C23.5944 34.4483 26.7523 34.9544 20.7111 39.6932C14.6698 44.432 26.7523 41.1195 28.0337 35.9666C29.3152 30.7677 38.0567 34.5403 26.8896 45.3522C20.7111 51.3332 18.5143 54.3697 17.782 55.934C22.1756 58.7404 27.393 60.3967 32.9766 60.3967C44.3725 60.3967 54.1666 53.6336 58.6975 43.9259C51.7867 40.9814 45.6082 36.7487 45.2421 30.7217Z" fill="#1B1A1A"></path>
</svg>
