<svg width="235" height="58" viewBox="0 0 235 58" fill="none" xmlns="http://www.w3.org/2000/svg">
<path d="M64.7581 38.5261V15.717H67.104V25.6782H66.8613V38.5667H64.7581V38.5261ZM72.443 39.0139C70.8656 39.0139 69.5308 38.6074 68.4792 37.8349C67.3871 37.0217 66.5782 35.9646 66.0119 34.5822C65.4457 33.1999 65.1625 31.6955 65.1625 29.9879C65.1625 28.2396 65.4457 26.6946 66.0119 25.3529C66.5782 24.0112 67.3871 22.9135 68.4792 22.141C69.5713 21.3685 70.906 20.9619 72.5239 20.9619C74.0609 20.9619 75.4361 21.3685 76.5281 22.141C77.6202 22.9135 78.51 24.0112 79.0763 25.3936C79.683 26.776 79.9661 28.2803 79.9661 29.9879C79.9661 31.6955 79.683 33.2405 79.0763 34.6229C78.4696 36.0053 77.6202 37.0624 76.4877 37.8755C75.3552 38.6887 74.0204 39.0139 72.443 39.0139ZM72.2003 36.8591C73.3733 36.8591 74.3844 36.5745 75.1529 35.9646C75.9619 35.3547 76.5281 34.5416 76.9326 33.4845C77.3371 32.4274 77.5393 31.289 77.5393 29.9879C77.5393 28.6869 77.3371 27.5485 76.9731 26.4914C76.5686 25.4749 76.0023 24.6211 75.1934 24.0519C74.3844 23.442 73.3733 23.1574 72.1599 23.1574C70.9869 23.1574 69.9757 23.442 69.2072 24.0112C68.4387 24.5804 67.832 25.3936 67.4276 26.4507C67.0231 27.4671 66.8613 28.6869 66.8613 30.0286C66.8613 31.3703 67.0635 32.5494 67.4276 33.5658C67.832 34.6229 68.3983 35.4361 69.2072 36.0053C70.0162 36.5745 70.9869 36.8591 72.2003 36.8591Z" fill="#0C1A3D"></path>
<path d="M84.4141 38.5306V15.2336H86.7195V38.5712H84.4141V38.5306Z" fill="#0C1A3D"></path>
<path d="M98.6097 38.978C97.5985 38.978 96.7087 38.8153 95.9402 38.4901C95.1717 38.1648 94.5246 37.7582 93.9988 37.189C93.4729 36.6605 93.028 36.0506 92.7045 35.3594C92.3809 34.6683 92.1382 33.9364 91.9764 33.1639C91.8146 32.3914 91.7742 31.6189 91.7742 30.8464V21.4138H94.1201V30.1552C94.1201 31.0904 94.201 31.9848 94.4032 32.7573C94.565 33.5705 94.8886 34.2617 95.2526 34.8715C95.6166 35.4814 96.1425 35.9286 96.7896 36.2539C97.3963 36.5792 98.1648 36.7418 99.0546 36.7418C99.8636 36.7418 100.592 36.5792 101.239 36.2946C101.845 36.01 102.371 35.6034 102.816 35.0748C103.261 34.5463 103.585 33.8958 103.787 33.1233C103.989 32.3508 104.111 31.4969 104.111 30.5212L105.769 30.8871C105.769 32.6354 105.445 34.099 104.839 35.3188C104.232 36.4979 103.382 37.433 102.331 38.0428C101.239 38.6527 99.9849 38.978 98.6097 38.978ZM104.353 38.5307V34.343H104.111V21.4138H106.416V38.5307H104.353Z" fill="#0C1A3D"></path>
<path d="M118.671 39.0137C117.012 39.0137 115.556 38.6478 114.343 37.916C113.13 37.1841 112.199 36.127 111.512 34.7853C110.824 33.4436 110.5 31.858 110.5 30.069C110.5 28.1988 110.824 26.5724 111.512 25.2307C112.159 23.8484 113.089 22.8319 114.303 22.0594C115.516 21.3276 116.932 20.9617 118.59 20.9617C120.289 20.9617 121.704 21.3682 122.918 22.1407C124.091 22.9132 125.021 24.0517 125.628 25.4747C126.234 26.9384 126.518 28.646 126.477 30.6789H124.091V29.8657C124.05 27.6295 123.565 25.9626 122.675 24.8242C121.785 23.6857 120.45 23.1165 118.671 23.1165C116.851 23.1165 115.435 23.7264 114.464 24.9055C113.494 26.0845 113.008 27.7922 113.008 30.0284C113.008 32.1832 113.494 33.8502 114.464 35.0699C115.435 36.249 116.81 36.8589 118.59 36.8589C119.803 36.8589 120.895 36.5743 121.785 36.005C122.675 35.4358 123.403 34.6227 123.929 33.5656L126.073 34.4194C125.385 35.9237 124.414 37.0622 123.08 37.8753C121.745 38.6885 120.329 39.0137 118.671 39.0137ZM112.159 30.6382V28.6866H125.183V30.6382H112.159Z" fill="#0C1A3D"></path>
<path d="M138.287 39.0231C136.547 39.0231 135.051 38.6572 133.757 37.8847C132.462 37.1529 131.451 36.0958 130.683 34.7541C129.954 33.4124 129.59 31.908 129.59 30.1597C129.59 28.2895 129.954 26.6632 130.683 25.2808C131.411 23.8984 132.381 22.8413 133.676 22.0688C134.929 21.2963 136.426 20.9304 138.084 20.9304C139.864 20.9304 141.361 21.337 142.574 22.1908C143.828 23.004 144.718 24.183 145.324 25.6874C145.931 27.1917 146.133 28.9807 146.012 31.0136H142.25V29.6312C142.25 27.7609 141.927 26.4192 141.28 25.5654C140.632 24.7116 139.621 24.2644 138.246 24.2644C136.669 24.2644 135.536 24.7523 134.768 25.728C133.999 26.7038 133.635 28.1268 133.635 29.9564C133.635 31.7047 133.999 33.0464 134.768 33.9816C135.536 34.9167 136.628 35.4046 138.084 35.4046C139.015 35.4046 139.824 35.2013 140.511 34.7947C141.199 34.3881 141.725 33.7783 142.089 32.9651L145.85 34.1035C145.203 35.6485 144.192 36.8683 142.817 37.7221C141.441 38.6166 139.945 39.0231 138.287 39.0231ZM132.422 31.0542V28.1675H144.151V31.0542H132.422Z" fill="#0C1A3D"></path>
<path d="M148.881 38.5305V21.4136H152.279V26.7397H152.724V38.5711H148.881V38.5305ZM160.692 38.5305V30.3176C160.692 29.7891 160.652 29.1792 160.571 28.5287C160.49 27.8781 160.328 27.2276 160.045 26.6178C159.762 26.0079 159.357 25.52 158.831 25.1134C158.306 24.7068 157.578 24.5442 156.688 24.5442C156.202 24.5442 155.717 24.6255 155.232 24.7882C154.746 24.9508 154.342 25.2354 153.937 25.6013C153.573 26.0079 153.25 26.4958 153.007 27.187C152.764 27.8781 152.643 28.732 152.643 29.7484L150.378 28.7726C150.378 27.3089 150.661 26.0079 151.227 24.7882C151.794 23.6091 152.603 22.674 153.695 21.9421C154.787 21.2509 156.121 20.885 157.739 20.885C158.993 20.885 160.045 21.0883 160.854 21.5355C161.663 21.9421 162.31 22.5113 162.795 23.1618C163.281 23.8124 163.645 24.5036 163.887 25.276C164.13 26.0079 164.251 26.6991 164.332 27.3903C164.413 28.0408 164.454 28.5693 164.454 29.0166V38.5711H160.692V38.5305Z" fill="#0C1A3D"></path>
<path d="M175.78 39.0231C174.041 39.0231 172.544 38.6572 171.25 37.8847C169.956 37.1122 168.944 36.0958 168.216 34.7541C167.488 33.4124 167.124 31.908 167.124 30.1597C167.124 28.2895 167.488 26.6632 168.216 25.2808C168.944 23.8984 169.915 22.8413 171.21 22.0688C172.463 21.2963 173.96 20.9304 175.618 20.9304C177.398 20.9304 178.894 21.337 180.108 22.1908C181.362 23.004 182.252 24.183 182.858 25.6874C183.465 27.1917 183.667 28.9807 183.546 31.0136H179.784V29.6312C179.784 27.7609 179.461 26.4192 178.814 25.5654C178.166 24.7116 177.155 24.2644 175.78 24.2644C174.243 24.2644 173.07 24.7523 172.302 25.728C171.533 26.7038 171.169 28.1268 171.169 29.9564C171.169 31.7047 171.533 33.0464 172.302 33.9816C173.07 34.9167 174.162 35.4046 175.618 35.4046C176.549 35.4046 177.357 35.2013 178.045 34.7947C178.733 34.3881 179.258 33.7783 179.623 32.9651L183.384 34.1035C182.737 35.6485 181.726 36.8683 180.351 37.7221C178.935 38.6166 177.438 39.0231 175.78 39.0231ZM169.915 31.0542V28.1675H181.645V31.0542H169.915Z" fill="#0C1A3D"></path>
<path d="M186.417 38.5258V21.4089H189.774V25.5967L189.369 25.0681C189.572 24.4989 189.855 23.9703 190.219 23.5231C190.583 23.0352 190.987 22.6693 191.473 22.344C191.877 22.0594 192.362 21.8155 192.888 21.6528C193.414 21.4902 193.94 21.3682 194.466 21.3682C194.992 21.3276 195.517 21.3682 196.043 21.4496V25.0274C195.558 24.8648 194.951 24.8242 194.304 24.8648C193.657 24.9055 193.05 25.1088 192.524 25.434C191.998 25.7186 191.554 26.0845 191.23 26.5318C190.906 26.979 190.664 27.4669 190.502 28.0361C190.34 28.6053 190.259 29.2152 190.259 29.8657V38.5665H186.417V38.5258Z" fill="#0C1A3D"></path>
<path d="M205.185 39.0231C203.607 39.0231 202.232 38.6166 201.1 37.8441C199.927 37.0309 199.037 35.9738 198.39 34.5914C197.743 33.2091 197.419 31.7047 197.419 29.9565C197.419 28.2082 197.743 26.6632 198.39 25.3215C199.037 23.9798 199.967 22.882 201.14 22.1095C202.313 21.337 203.729 20.9304 205.347 20.9304C206.964 20.9304 208.34 21.337 209.432 22.1095C210.524 22.882 211.373 23.9798 211.939 25.3215C212.506 26.7038 212.789 28.2488 212.789 29.9565C212.789 31.6641 212.506 33.2091 211.939 34.5508C211.373 35.9331 210.524 36.9902 209.391 37.8034C208.259 38.6166 206.843 39.0231 205.185 39.0231ZM205.549 46.6261C204.619 46.6261 203.688 46.4635 202.839 46.1789C201.989 45.8943 201.181 45.4471 200.493 44.9185C199.805 44.3493 199.239 43.6988 198.794 42.9263L202.313 41.178C202.637 41.7879 203.082 42.2758 203.688 42.5604C204.295 42.845 204.902 43.0076 205.589 43.0076C206.398 43.0076 207.086 42.8856 207.692 42.601C208.299 42.3164 208.785 41.9098 209.149 41.3813C209.472 40.8527 209.634 40.1616 209.634 39.3484V34.4695H210.119V21.459H213.436V39.4297C213.436 39.8769 213.436 40.2835 213.396 40.6901C213.355 41.0967 213.315 41.4626 213.234 41.8692C212.991 42.9669 212.506 43.9021 211.778 44.5933C211.05 45.3251 210.16 45.8536 209.108 46.1789C208.057 46.5042 206.803 46.6261 205.549 46.6261ZM205.791 35.6079C206.803 35.6079 207.652 35.3639 208.259 34.9167C208.865 34.4695 209.351 33.7783 209.634 32.9245C209.917 32.0707 210.079 31.0949 210.079 29.9971C210.079 28.8587 209.917 27.8829 209.634 27.0697C209.351 26.2159 208.906 25.5654 208.299 25.1182C207.692 24.6303 206.884 24.427 205.913 24.427C204.902 24.427 204.052 24.6709 203.405 25.1995C202.758 25.6874 202.273 26.3786 201.949 27.2324C201.625 28.0862 201.464 29.0213 201.464 30.0784C201.464 31.1355 201.625 32.0707 201.949 32.9245C202.273 33.7783 202.718 34.4695 203.365 34.9574C203.971 35.3639 204.78 35.6079 205.791 35.6079Z" fill="#0C1A3D"></path>
<path d="M220.067 46.1744L223.343 37.1077L223.424 39.7911L215.981 21.4545H219.945L225.203 35.0342H224.192L229.329 21.4138H233.131L223.626 46.1744H220.067Z" fill="#0C1A3D"></path>
<path d="M55.0956 33.4451V24.6224L47.8964 22.1423C47.6942 21.6137 47.4515 21.0852 47.2089 20.5566L50.6467 13.7261L44.4586 7.4648L37.583 10.8394C37.0572 10.5955 36.5314 10.3515 36.0056 10.1482L33.6194 2.91113H24.8429L22.4566 9.86361C21.7691 10.1076 21.0815 10.3515 20.4344 10.6768L13.9632 7.38349L7.77518 13.6041L10.8894 19.9874C10.5254 20.7192 10.2019 21.4917 9.91875 22.2642L3.24536 24.5004V33.3232L9.91875 35.6406C10.0401 36.0472 10.2019 36.4131 10.3636 36.8197C10.5254 37.1856 10.6872 37.5516 10.849 37.9175L7.69429 44.2601L13.8823 50.4807L20.2322 47.3501C20.5962 47.5127 21.0006 47.716 21.3646 47.8786C21.7286 48.0413 22.1331 48.1632 22.4971 48.3259L24.6811 55.0344H33.4576L35.763 48.3259C36.5314 48.0413 37.2999 47.716 38.0279 47.3501L44.3373 50.562L50.5253 44.3414L47.3302 37.7548C47.6133 37.1043 47.8964 36.4131 48.1391 35.722L55.0956 33.4451ZM29.1705 42.0646C23.7509 42.0646 19.3828 37.6329 19.3828 32.2254C19.3828 30.2332 19.9491 28.4036 20.9602 26.8586L29.2109 13.8481L37.0168 26.2487C37.3403 26.6959 37.6639 27.1838 37.9066 27.6717C38.5941 29.0134 38.9986 30.5584 38.9986 32.2254C38.9986 37.6735 34.5901 42.0646 29.1705 42.0646Z" fill="#0C1A3D"></path>
</svg>
