<svg width="37" height="34" viewBox="0 0 37 34" fill="none" xmlns="http://www.w3.org/2000/svg">
<path d="M5.61399 7.91809L5.60984 7.93254L5.61092 7.91528C5.61194 7.91621 5.61296 7.91715 5.61399 7.91809L7.78556 0.360667C7.78556 0.360667 7.89241 -0.0775007 8.33597 0.0120754C8.60038 0.057403 8.76874 0.405994 8.76874 0.405994L15.8064 12.9186C15.8064 12.9186 16.1269 13.5316 15.9586 14.273C15.8183 14.886 15.1438 15.2562 15.1438 15.2562L2.68189 22.0521C2.68189 22.0521 2.24372 22.4007 1.89513 22.1762C1.54654 21.9399 1.69871 21.5071 1.69871 21.5071L3.81832 14.1435C4.6534 13.9963 5.40983 13.5593 5.95462 12.9095C6.49942 12.2597 6.79769 11.4386 6.79699 10.5907C6.79699 9.53021 6.34283 8.58705 5.61399 7.91809Z" fill="#0C1A3D"></path>
<path d="M6.13221 11.8281C6.29221 11.4412 6.37436 11.0266 6.37393 10.608H6.37933C6.37904 10.1891 6.29624 9.77433 6.13564 9.38744C5.97504 9.00056 5.7398 8.6491 5.44335 8.35315C5.14689 8.0572 4.79504 7.82255 4.40789 7.66261C4.02073 7.50267 3.60586 7.42056 3.18697 7.42099C1.43322 7.42099 0 8.84881 0 10.608C0 12.3671 1.43322 13.7949 3.18697 13.7949C3.6056 13.7953 4.02022 13.7132 4.40707 13.5532C4.79392 13.3932 5.14542 13.1584 5.44144 12.8624C5.73746 12.5664 5.9722 12.2149 6.13221 11.8281Z" fill="#0C1A3D"></path>
<path d="M19.7819 33.9349C21.541 33.9349 22.9688 32.5124 22.9688 30.7479C22.9688 28.9941 21.541 27.5609 19.7819 27.5609C18.0227 27.5609 16.5949 28.9888 16.5949 30.7479C16.5949 32.5124 18.0227 33.9349 19.7819 33.9349Z" fill="#E25600"></path>
<path d="M8.70789 32.2491L16.1783 30.5008L16.1762 30.5083H16.2215C16.2869 29.5966 16.6947 28.7433 17.3631 28.1197C18.0315 27.4962 18.911 27.1485 19.825 27.1465C20.454 27.1439 21.0724 27.3079 21.6174 27.6218C22.1624 27.9357 22.6145 28.3884 22.9278 28.9337L30.1792 27.2415C30.1792 27.2415 30.6346 27.1692 30.6573 26.7472C30.6789 26.3317 30.1565 26.118 30.1565 26.118L18.1393 18.558C18.1393 18.558 17.4874 18.1533 16.8863 18.327C16.1611 18.5407 15.779 19.1192 15.779 19.1192L8.27512 31.3674C8.27512 31.3674 8.06144 31.6814 8.14562 31.9404C8.29779 32.3667 8.70789 32.2491 8.70789 32.2491Z" fill="#E25600"></path>
<path d="M36.8636 16.5125L31.3833 10.4979L31.3768 10.4612C30.9368 10.644 30.4654 10.7393 29.9889 10.7418C29.5153 10.7424 29.0462 10.6496 28.6084 10.4688C28.1707 10.288 27.7728 10.0226 27.4377 9.68798C27.1025 9.35331 26.8366 8.95588 26.6551 8.51839C26.4736 8.0809 26.3801 7.61193 26.38 7.13829C26.38 6.52529 26.5322 5.95761 26.802 5.45145L22.0242 0.235537C22.0242 0.235537 21.7425 -0.130322 21.3551 0.0499097C20.9785 0.223666 21.0464 0.785944 21.0464 0.785944L20.3158 14.9616C20.3158 14.9616 20.277 15.7322 20.7205 16.165C21.2601 16.6927 21.9454 16.7434 21.9454 16.7434L36.3014 17.3111C36.3014 17.3111 36.6888 17.3564 36.869 17.1535C37.1669 16.8157 36.8636 16.5125 36.8636 16.5125Z" fill="#4487ED"></path>
<path d="M33.1824 7.17687C33.1824 7.1748 33.1824 7.17273 33.1824 7.17066V7.18578C33.1824 7.18281 33.1824 7.17984 33.1824 7.17687C33.1811 7.5912 33.0991 8.00135 32.9407 8.3843C32.7806 8.77115 32.5459 9.12265 32.2499 9.41867C31.9539 9.71469 31.6024 9.94942 31.2155 10.1094C30.8287 10.2694 30.4141 10.3516 29.9954 10.3512C29.5768 10.3516 29.1622 10.2694 28.7753 10.1094C28.3885 9.94942 28.037 9.71469 27.7409 9.41867C27.4449 9.12265 27.2102 8.77115 27.0502 8.3843C26.8902 7.99744 26.808 7.58283 26.8085 7.16419C26.8085 5.41584 28.2363 3.99342 29.9954 3.99342C31.7516 3.99342 33.1775 5.4336 33.1824 7.17687Z" fill="#4487ED"></path>
</svg>
