<svg xmlns="http://www.w3.org/2000/svg" width="37" height="34" fill="none"><path fill="#0C1A3D" d="m5.614 7.918-.004.015v-.018zL7.786.361s.106-.439.55-.349c.264.045.433.394.433.394l7.037 12.513s.32.613.153 1.354c-.14.613-.815.983-.815.983L2.682 22.052s-.438.349-.787.124c-.348-.236-.196-.669-.196-.669l2.12-7.364a3.604 3.604 0 0 0 2.978-3.552c0-1.06-.454-2.004-1.183-2.673"/><path fill="#0C1A3D" d="M6.132 11.828c.16-.387.242-.801.242-1.22h.005a3.19 3.19 0 0 0-6.379 0 3.192 3.192 0 0 0 4.407 2.945 3.18 3.18 0 0 0 1.725-1.725"/><path fill="#E25600" d="M19.782 33.935a3.185 3.185 0 0 0 3.187-3.187 3.19 3.19 0 0 0-3.187-3.187 3.19 3.19 0 0 0-3.187 3.187 3.185 3.185 0 0 0 3.187 3.187"/><path fill="#E25600" d="m8.708 32.25 7.47-1.75-.002.008h.046a3.62 3.62 0 0 1 3.603-3.361 3.56 3.56 0 0 1 3.103 1.787l7.251-1.693s.456-.072.478-.494c.022-.415-.5-.629-.5-.629l-12.018-7.56s-.652-.405-1.253-.231c-.725.214-1.107.792-1.107.792L8.275 31.367s-.214.314-.13.573c.153.427.563.31.563.31"/><path fill="#4487ED" d="m36.864 16.513-5.48-6.015-.007-.037a3.605 3.605 0 0 1-4.997-3.323c0-.613.152-1.18.422-1.687L22.024.236s-.282-.366-.669-.186c-.377.174-.309.736-.309.736l-.73 14.176s-.039.77.405 1.203c.54.528 1.224.578 1.224.578l14.356.568s.388.045.568-.157c.298-.338-.005-.642-.005-.642"/><path fill="#4487ED" d="M33.182 7.177V7.17v.015za3.185 3.185 0 0 1-4.407 2.933 3.185 3.185 0 0 1-1.966-2.945 3.18 3.18 0 0 1 3.186-3.17 3.2 3.2 0 0 1 3.187 3.183"/></svg>