<svg width="192" height="46" viewBox="0 0 192 46" fill="none" xmlns="http://www.w3.org/2000/svg">
<path d="M53.0023 37.0569C51.6292 37.0569 50.4849 36.7808 49.4323 36.2287C48.4253 35.6766 47.6472 34.8945 47.098 33.8363C46.5488 32.7781 46.2742 31.5819 46.2742 30.1557C46.2742 28.7295 46.5488 27.4872 47.098 26.4751C47.6472 25.4629 48.4253 24.6808 49.4323 24.1287C50.4392 23.5766 51.6292 23.3005 52.9565 23.3005C53.8261 23.3005 54.65 23.4386 55.4738 23.7146C56.2977 23.9907 56.9842 24.3587 57.4877 24.8648L56.4807 27.1192C56.023 26.7051 55.4738 26.3371 54.9246 26.153C54.3296 25.923 53.7803 25.831 53.2311 25.831C52.0869 25.831 51.1715 26.199 50.5307 26.9352C49.8899 27.6713 49.5696 28.7295 49.5696 30.1097C49.5696 31.4899 49.8899 32.5941 50.5307 33.3302C51.1715 34.0664 52.0869 34.4344 53.2311 34.4344C53.7803 34.4344 54.3296 34.3424 54.9246 34.1124C55.5196 33.8823 56.023 33.5603 56.5265 33.1462L57.5334 35.4006C56.9842 35.9067 56.2977 36.3208 55.4738 36.5968C54.6957 36.9189 53.8719 37.0569 53.0023 37.0569Z" fill="#0C1A3D"></path>
<path d="M60.6011 36.7817V17.5044H63.8507V26.1999H63.4845C63.8965 25.2797 64.4915 24.5436 65.3153 24.0375C66.1392 23.5314 67.1003 23.3014 68.1988 23.3014C69.7549 23.3014 70.9449 23.7615 71.6773 24.6356C72.4553 25.5098 72.8215 26.844 72.8215 28.6383V36.7817H69.5719V28.8223C69.5719 27.8101 69.3888 27.028 68.9769 26.5679C68.5649 26.1079 67.9699 25.8778 67.1003 25.8778C66.0934 25.8778 65.3153 26.1999 64.7203 26.798C64.1253 27.3961 63.8049 28.2242 63.8049 29.2824V36.7817H60.6011Z" fill="#0C1A3D"></path>
<path d="M83.1642 37.0629C80.9673 37.0629 79.228 36.4648 77.9923 35.2226C76.7565 33.9803 76.1157 32.3241 76.1157 30.2077C76.1157 28.8275 76.3903 27.6313 76.9396 26.6191C77.4888 25.6069 78.2211 24.7788 79.1823 24.2267C80.1434 23.6286 81.2877 23.3525 82.5692 23.3525C83.8507 23.3525 84.9034 23.6286 85.7273 24.1807C86.5969 24.7328 87.2377 25.4689 87.6496 26.4351C88.1073 27.4012 88.3361 28.5514 88.3361 29.8857V30.7598H78.7703V29.0115H86.0477L85.59 29.3796C85.59 28.1374 85.3154 27.2172 84.8119 26.5731C84.3084 25.929 83.5761 25.6069 82.5692 25.6069C81.4707 25.6069 80.6469 25.975 80.0977 26.7571C79.5027 27.5393 79.228 28.5974 79.228 29.9777V30.2997C79.228 31.726 79.5942 32.7841 80.2807 33.5203C80.9673 34.2104 81.9742 34.5784 83.2557 34.5784C83.9881 34.5784 84.7204 34.4864 85.3611 34.2564C86.0019 34.0724 86.6427 33.7503 87.2377 33.2902L88.1988 35.4986C87.5581 36.0047 86.8257 36.4188 85.9561 36.6948C85.0865 36.9248 84.1711 37.0629 83.1642 37.0629Z" fill="#0C1A3D"></path>
<path d="M91.6304 36.7817V17.5044H94.88V29.1904H94.9258L100.235 23.5774H104.171L97.5346 30.5706L97.5804 29.2824L104.675 36.8277H100.601L94.88 30.8927H94.8342V36.8277H91.6304V36.7817Z" fill="#0C1A3D"></path>
<path d="M106.734 42.4327V26.7441C106.734 26.238 106.734 25.7319 106.688 25.1798C106.643 24.6737 106.597 24.1216 106.551 23.6155H108.839L109.114 26.6521H108.839C109.114 25.6399 109.663 24.8577 110.487 24.2596C111.357 23.6615 112.364 23.3855 113.554 23.3855C114.698 23.3855 115.751 23.6615 116.62 24.2136C117.49 24.7657 118.176 25.5479 118.634 26.56C119.092 27.5722 119.366 28.8144 119.366 30.1947C119.366 31.6209 119.138 32.8171 118.634 33.8753C118.176 34.8875 117.49 35.6696 116.62 36.2217C115.751 36.7738 114.744 37.0498 113.554 37.0498C112.364 37.0498 111.403 36.7738 110.533 36.1757C109.709 35.5776 109.114 34.7954 108.839 33.8293H109.114V42.4327H106.734ZM112.959 35.1175C114.149 35.1175 115.11 34.7034 115.842 33.8753C116.575 33.0471 116.895 31.8049 116.895 30.1947C116.895 28.5844 116.529 27.3422 115.842 26.514C115.11 25.6859 114.195 25.2718 112.959 25.2718C111.769 25.2718 110.808 25.6859 110.121 26.514C109.434 27.3422 109.068 28.5384 109.068 30.1947C109.068 31.8049 109.434 33.0471 110.121 33.8753C110.808 34.7034 111.769 35.1175 112.959 35.1175Z" fill="#0C1A3D"></path>
<path d="M128.932 37.0038C126.826 37.0038 125.225 36.4057 123.989 35.2095C122.799 34.0133 122.158 32.357 122.158 30.2407C122.158 28.8604 122.433 27.6182 122.936 26.606C123.485 25.5939 124.218 24.8117 125.133 24.2136C126.048 23.6155 127.147 23.3855 128.428 23.3855C129.618 23.3855 130.625 23.6615 131.495 24.1676C132.319 24.6737 132.96 25.4098 133.417 26.376C133.829 27.2962 134.058 28.4464 134.058 29.7346V30.4707H124.035V29.0445H132.456L131.998 29.3665C131.998 27.9863 131.678 26.9281 131.083 26.192C130.488 25.4559 129.618 25.0878 128.428 25.0878C127.147 25.0878 126.186 25.5479 125.499 26.422C124.813 27.2962 124.446 28.4924 124.446 30.0106V30.2407C124.446 31.8509 124.858 33.0471 125.636 33.8753C126.415 34.7034 127.513 35.1175 128.932 35.1175C129.71 35.1175 130.442 35.0255 131.129 34.7954C131.815 34.5654 132.456 34.1973 133.097 33.6913L133.875 35.3475C133.28 35.8996 132.548 36.3137 131.678 36.5897C130.808 36.8658 129.893 37.0038 128.932 37.0038Z" fill="#0C1A3D"></path>
<path d="M143.211 37.0038C141.929 37.0038 140.831 36.7278 139.87 36.1757C138.954 35.6236 138.222 34.8414 137.673 33.8293C137.124 32.8171 136.895 31.6209 136.895 30.1947C136.895 28.7684 137.169 27.5722 137.673 26.56C138.176 25.5479 138.909 24.7657 139.87 24.2136C140.785 23.6615 141.929 23.3855 143.211 23.3855C144.492 23.3855 145.591 23.6615 146.552 24.2136C147.513 24.7657 148.246 25.5479 148.749 26.56C149.253 27.5722 149.527 28.7684 149.527 30.1947C149.527 31.6209 149.253 32.8171 148.749 33.8293C148.246 34.8414 147.513 35.6236 146.552 36.1757C145.591 36.7278 144.492 37.0038 143.211 37.0038ZM143.211 35.1175C144.401 35.1175 145.316 34.7034 146.049 33.8753C146.781 33.0471 147.101 31.8049 147.101 30.1947C147.101 28.5844 146.735 27.3422 146.049 26.514C145.316 25.6859 144.401 25.2718 143.211 25.2718C142.021 25.2718 141.06 25.6859 140.373 26.514C139.687 27.3422 139.321 28.5384 139.321 30.1947C139.321 31.8049 139.687 33.0471 140.373 33.8753C141.06 34.7034 142.021 35.1175 143.211 35.1175Z" fill="#0C1A3D"></path>
<path d="M153.188 42.4327V26.7441C153.188 26.238 153.188 25.7319 153.143 25.1798C153.097 24.6277 153.051 24.1216 153.005 23.6155H155.294L155.568 26.6521H155.294C155.568 25.6399 156.118 24.8577 156.942 24.2596C157.811 23.6615 158.818 23.3855 160.008 23.3855C161.152 23.3855 162.205 23.6615 163.075 24.2136C163.944 24.7657 164.631 25.5479 165.088 26.56C165.546 27.5722 165.821 28.8144 165.821 30.1947C165.821 31.6209 165.592 32.8171 165.088 33.8753C164.631 34.8875 163.944 35.6696 163.075 36.2217C162.205 36.7738 161.198 37.0498 160.008 37.0498C158.864 37.0498 157.857 36.7738 156.987 36.1757C156.163 35.5776 155.568 34.7954 155.294 33.8293H155.568V42.4327H153.188ZM159.459 35.1175C160.649 35.1175 161.61 34.7034 162.342 33.8753C163.075 33.0471 163.395 31.8049 163.395 30.1947C163.395 28.5844 163.029 27.3422 162.342 26.514C161.61 25.6859 160.695 25.2718 159.459 25.2718C158.269 25.2718 157.308 25.6859 156.621 26.514C155.935 27.3422 155.568 28.5384 155.568 30.1947C155.568 31.8049 155.935 33.0471 156.621 33.8753C157.308 34.7034 158.269 35.1175 159.459 35.1175Z" fill="#0C1A3D"></path>
<path d="M169.477 36.7809V17.5037H171.859V36.7809H169.477Z" fill="#0C1A3D"></path>
<path d="M182.295 37.0038C180.19 37.0038 178.588 36.4057 177.352 35.2095C176.162 34.0133 175.521 32.357 175.521 30.2407C175.521 28.8604 175.796 27.6182 176.299 26.606C176.849 25.5939 177.581 24.8117 178.496 24.2136C179.412 23.6155 180.51 23.3855 181.792 23.3855C182.982 23.3855 183.989 23.6615 184.858 24.1676C185.682 24.6737 186.323 25.4098 186.78 26.376C187.192 27.2962 187.421 28.4464 187.421 29.7346V30.4707H177.398V29.0445H185.819L185.362 29.3665C185.362 27.9863 185.041 26.9281 184.446 26.192C183.851 25.4559 182.982 25.0878 181.792 25.0878C180.51 25.0878 179.549 25.5479 178.862 26.422C178.176 27.2962 177.81 28.4924 177.81 30.0106V30.2407C177.81 31.8509 178.222 33.0471 179 33.8753C179.778 34.7034 180.876 35.1175 182.295 35.1175C183.073 35.1175 183.805 35.0255 184.492 34.7954C185.179 34.5654 185.819 34.1973 186.46 33.6913L187.238 35.3475C186.643 35.8996 185.911 36.3137 185.041 36.5897C184.172 36.8658 183.256 37.0038 182.295 37.0038Z" fill="#0C1A3D"></path>
<path d="M5.2666 19.5839C5.2666 19.5839 15.976 24.7368 22.0173 39.3213C22.0173 39.3213 35.3812 21.2402 57.99 14.7071C57.99 14.7071 53.5964 7.29983 49.1112 6.05762C49.1112 6.05762 32.2233 14.477 22.7495 27.2672C22.7495 27.2672 18.2644 19.4919 13.1385 16.9615C13.1385 16.9615 7.18881 16.6394 5.2666 19.5839Z" fill="#0C1A3D"></path>
<path d="M31.0804 9.96685C31.0804 13.7855 28.0139 16.868 24.215 16.868C20.4162 16.868 17.3496 13.7855 17.3496 9.96685C17.3496 6.1482 20.4162 3.06567 24.215 3.06567C28.0139 3.06567 31.0804 6.1482 31.0804 9.96685Z" fill="#0C1A3D"></path>
</svg>
