<svg xmlns="http://www.w3.org/2000/svg" width="192" height="46" fill="none"><path fill="#0C1A3D" d="M53.002 37.057c-1.373 0-2.517-.276-3.57-.828a5.6 5.6 0 0 1-2.334-2.393c-.55-1.058-.824-2.254-.824-3.68s.275-2.669.824-3.68a5.75 5.75 0 0 1 2.334-2.347c1.007-.552 2.197-.829 3.524-.829.87 0 1.694.139 2.518.415s1.51.644 2.014 1.15l-1.007 2.254c-.458-.414-1.007-.782-1.556-.966a4.6 4.6 0 0 0-1.694-.322c-1.144 0-2.06.368-2.7 1.104q-.961 1.104-.961 3.175c0 1.38.32 2.484.96 3.22.642.736 1.557 1.104 2.701 1.104a4.6 4.6 0 0 0 1.694-.322c.595-.23 1.098-.552 1.602-.966l1.006 2.255c-.549.506-1.235.92-2.06 1.196-.777.322-1.601.46-2.47.46M60.601 36.782V17.504h3.25V26.2h-.367c.413-.92 1.008-1.656 1.831-2.162.824-.507 1.785-.737 2.884-.737 1.556 0 2.746.46 3.478 1.335.778.874 1.144 2.208 1.144 4.002v8.144h-3.25v-7.96c0-1.012-.182-1.794-.594-2.254s-1.007-.69-1.877-.69c-1.007 0-1.785.322-2.38.92s-.915 1.426-.915 2.484v7.5zM83.164 37.063c-2.197 0-3.936-.598-5.172-1.84-1.236-1.243-1.876-2.899-1.876-5.015q0-2.07.824-3.589c.549-1.012 1.281-1.84 2.242-2.392.961-.598 2.106-.875 3.387-.875q1.922 0 3.158.829a4.86 4.86 0 0 1 1.923 2.254q.686 1.449.686 3.45v.875H78.77v-1.748h7.278l-.458.368c0-1.243-.275-2.163-.778-2.807-.504-.644-1.236-.966-2.243-.966-1.098 0-1.922.368-2.471 1.15-.595.782-.87 1.84-.87 3.22v.323c0 1.426.366 2.484 1.053 3.22.686.69 1.693 1.058 2.975 1.058.732 0 1.464-.092 2.105-.322a5.6 5.6 0 0 0 1.877-.966l.96 2.209c-.64.506-1.372.92-2.242 1.196-.87.23-1.785.368-2.792.368M91.63 36.782V17.504h3.25V29.19h.046l5.309-5.613h3.936l-6.636 6.994.045-1.289 7.095 7.546h-4.074l-5.721-5.935h-.046v5.935H91.63zM106.734 42.433V26.744c0-.506 0-1.012-.046-1.564-.045-.506-.091-1.058-.137-1.564h2.288l.275 3.036h-.275a4.22 4.22 0 0 1 1.648-2.392c.87-.599 1.877-.875 3.067-.875 1.144 0 2.197.276 3.066.829.87.552 1.556 1.334 2.014 2.346s.732 2.254.732 3.635c0 1.426-.228 2.622-.732 3.68-.458 1.013-1.144 1.795-2.014 2.347s-1.876.828-3.066.828-2.151-.276-3.021-.874c-.824-.598-1.419-1.38-1.694-2.347h.275v8.604zm6.225-7.315q1.785 0 2.883-1.243c.733-.828 1.053-2.07 1.053-3.68s-.366-2.853-1.053-3.681c-.732-.828-1.647-1.242-2.883-1.242-1.19 0-2.151.414-2.838 1.242s-1.053 2.024-1.053 3.68c0 1.61.366 2.853 1.053 3.681s1.648 1.242 2.838 1.242M128.932 37.004c-2.106 0-3.707-.598-4.943-1.794-1.19-1.197-1.831-2.853-1.831-4.97 0-1.38.275-2.622.778-3.634a6.5 6.5 0 0 1 2.197-2.392c.915-.598 2.014-.828 3.295-.828 1.19 0 2.197.276 3.067.782q1.236.759 1.922 2.208c.412.92.641 2.07.641 3.359v.736h-10.023v-1.427h8.421l-.458.322c0-1.38-.32-2.438-.915-3.174s-1.465-1.104-2.655-1.104c-1.281 0-2.242.46-2.929 1.334s-1.053 2.07-1.053 3.589v.23c0 1.61.412 2.806 1.19 3.634q1.168 1.242 3.296 1.242c.778 0 1.51-.091 2.197-.322.686-.23 1.327-.598 1.968-1.104l.778 1.656q-.892.83-2.197 1.243a9 9 0 0 1-2.746.414M143.211 37.004c-1.282 0-2.38-.276-3.341-.828q-1.374-.828-2.197-2.347c-.549-1.012-.778-2.208-.778-3.634 0-1.427.274-2.623.778-3.635a5.43 5.43 0 0 1 2.197-2.346c.915-.552 2.059-.828 3.341-.828 1.281 0 2.38.276 3.341.828a5.43 5.43 0 0 1 2.197 2.346c.504 1.012.778 2.208.778 3.635s-.274 2.622-.778 3.634a5.43 5.43 0 0 1-2.197 2.347c-.961.552-2.06.828-3.341.828m0-1.886c1.19 0 2.105-.415 2.838-1.243.732-.828 1.052-2.07 1.052-3.68s-.366-2.853-1.052-3.681c-.733-.828-1.648-1.242-2.838-1.242s-2.151.414-2.838 1.242c-.686.828-1.052 2.024-1.052 3.68 0 1.61.366 2.853 1.052 3.681.687.828 1.648 1.242 2.838 1.242M153.188 42.433V26.744c0-.506 0-1.012-.045-1.564-.046-.552-.092-1.058-.138-1.564h2.289l.274 3.036h-.274a4.22 4.22 0 0 1 1.648-2.392c.869-.599 1.876-.875 3.066-.875 1.144 0 2.197.276 3.067.829a5.3 5.3 0 0 1 2.013 2.346c.458 1.012.733 2.254.733 3.635 0 1.426-.229 2.622-.733 3.68a5.3 5.3 0 0 1-2.013 2.347c-.87.552-1.877.828-3.067.828-1.144 0-2.151-.276-3.021-.874-.824-.598-1.419-1.38-1.693-2.347h.274v8.604zm6.271-7.315q1.785 0 2.883-1.243c.733-.828 1.053-2.07 1.053-3.68s-.366-2.853-1.053-3.681c-.732-.828-1.647-1.242-2.883-1.242-1.19 0-2.151.414-2.838 1.242-.686.828-1.053 2.024-1.053 3.68 0 1.61.367 2.853 1.053 3.681.687.828 1.648 1.242 2.838 1.242M169.477 36.78V17.505h2.382V36.78zM182.295 37.004c-2.105 0-3.707-.598-4.943-1.794-1.19-1.197-1.831-2.853-1.831-4.97 0-1.38.275-2.622.778-3.634a6.5 6.5 0 0 1 2.197-2.392c.916-.598 2.014-.828 3.296-.828 1.19 0 2.197.276 3.066.782q1.236.759 1.922 2.208c.412.92.641 2.07.641 3.359v.736h-10.023v-1.427h8.421l-.457.322c0-1.38-.321-2.438-.916-3.174s-1.464-1.104-2.654-1.104c-1.282 0-2.243.46-2.93 1.334-.686.874-1.052 2.07-1.052 3.589v.23c0 1.61.412 2.806 1.19 3.634q1.167 1.242 3.295 1.242c.778 0 1.51-.091 2.197-.322.687-.23 1.327-.598 1.968-1.104l.778 1.656q-.892.83-2.197 1.243a9 9 0 0 1-2.746.414M5.267 19.584s10.709 5.153 16.75 19.737c0 0 13.364-18.08 35.973-24.614 0 0-4.394-7.407-8.879-8.65 0 0-16.888 8.42-26.361 21.21 0 0-4.486-7.775-9.611-10.305 0 0-5.95-.323-7.872 2.622"/><path fill="#0C1A3D" d="M31.08 9.967c0 3.819-3.066 6.901-6.865 6.901s-6.865-3.082-6.865-6.901 3.066-6.901 6.865-6.901 6.865 3.082 6.865 6.9"/></svg>