<svg xmlns="http://www.w3.org/2000/svg" width="243" height="68" fill="none"><path fill="#0C1A3D" d="M66.892 51.48c-1.882 0-3.45-.405-4.75-1.26-1.299-.856-2.285-2.027-2.957-3.468-.672-1.487-1.03-3.198-1.03-5.135.045-1.982.358-3.693 1.075-5.18.672-1.486 1.703-2.657 2.957-3.468q1.95-1.216 4.705-1.216c1.882 0 3.54.45 4.929 1.397 1.389.9 2.33 2.207 2.867 3.783l-2.464.81c-.448-1.125-1.12-1.981-2.061-2.612-.941-.63-2.061-.9-3.271-.9-1.344 0-2.51.315-3.405.945-.896.631-1.569 1.487-2.017 2.613s-.672 2.387-.672 3.873c.045 2.252.538 4.054 1.569 5.405s2.509 2.027 4.525 2.027c1.255 0 2.33-.27 3.226-.856q1.344-.878 2.016-2.567l2.554.765c-.672 1.667-1.702 2.928-3.047 3.784-1.299.855-2.912 1.26-4.749 1.26M77.87 50.991V25.544h2.508V50.99zM92.742 51.48c-1.792 0-3.405-.405-4.704-1.215-1.344-.811-2.375-1.937-3.092-3.423-.717-1.487-1.12-3.198-1.12-5.135 0-2.027.358-3.828 1.075-5.315.717-1.486 1.748-2.657 3.047-3.423 1.3-.81 2.868-1.216 4.66-1.216 1.837 0 3.405.406 4.705 1.261q1.949 1.284 2.957 3.649c.672 1.576.985 3.468.896 5.675h-2.599v-.901c-.045-2.432-.582-4.234-1.568-5.495-.986-1.216-2.42-1.846-4.346-1.846-2.017 0-3.54.63-4.57 1.936-1.076 1.306-1.614 3.153-1.614 5.585 0 2.342.538 4.189 1.614 5.495 1.075 1.306 2.553 1.937 4.525 1.937q2.017 0 3.495-.946c.986-.63 1.792-1.486 2.33-2.658l2.374.901a8.6 8.6 0 0 1-3.226 3.784q-2.084 1.35-4.839 1.35m-7.079-9.142V40.22h14.204v2.117zM110.351 51.48c-1.389 0-2.554-.27-3.54-.765-.941-.495-1.658-1.171-2.106-2.027-.493-.855-.717-1.756-.717-2.747 0-1.036.224-1.892.628-2.612.403-.721.985-1.307 1.657-1.757a8.1 8.1 0 0 1 2.465-1.036c.941-.225 1.971-.45 3.136-.63 1.12-.18 2.24-.316 3.361-.45a74 74 0 0 0 2.867-.406l-.896.54c.045-1.846-.314-3.198-1.075-4.098q-1.143-1.351-3.898-1.351c-1.255 0-2.33.27-3.226.855-.897.586-1.479 1.487-1.837 2.748l-2.465-.721c.403-1.666 1.3-2.973 2.554-3.873 1.299-.901 2.957-1.397 5.018-1.397 1.703 0 3.137.316 4.347.946 1.209.63 2.016 1.577 2.509 2.793.224.54.358 1.126.448 1.801.089.676.089 1.352.089 2.027v11.62h-2.24v-4.684l.672.27q-.94 2.433-2.957 3.649c-1.344.9-2.957 1.306-4.794 1.306m.269-2.161c1.165 0 2.195-.225 3.091-.63q1.344-.61 2.151-1.757c.538-.766.896-1.577 1.03-2.523a9 9 0 0 0 .224-1.981v-1.622l.986.496c-.851.135-1.792.225-2.778.36l-2.957.406c-.986.135-1.837.315-2.644.54-.537.135-1.03.36-1.523.63q-.74.406-1.21 1.081c-.313.45-.493.991-.493 1.667 0 .54.135 1.08.404 1.576s.717.946 1.299 1.261c.627.316 1.434.496 2.42.496M124.105 50.985V32.294h2.285v4.594h.269v14.097zm13.486 0v-9.548c0-1.036-.089-1.982-.313-2.883a6.6 6.6 0 0 0-.941-2.297c-.448-.63-.986-1.17-1.658-1.531-.672-.36-1.523-.54-2.509-.54-.896 0-1.703.135-2.375.45a4.56 4.56 0 0 0-1.703 1.351c-.448.586-.806 1.306-1.075 2.117s-.358 1.757-.358 2.837l-1.793-.405c0-1.937.314-3.513.986-4.82.672-1.305 1.568-2.296 2.733-2.972 1.165-.675 2.509-.99 4.033-.99 1.12 0 2.106.18 2.912.54.852.36 1.524.81 2.106 1.396.583.586 1.031 1.261 1.389 2.027a9.3 9.3 0 0 1 .762 2.387c.179.856.224 1.712.224 2.522v10.27h-2.42zM143.865 50.987V26.08h3.719v13.106h.493v11.8zm12.904 0v-9.008c0-.586-.045-1.261-.134-1.937a8.3 8.3 0 0 0-.538-2.072c-.314-.675-.717-1.216-1.299-1.621-.583-.405-1.345-.63-2.33-.63-.538 0-1.031.09-1.568.27a3.1 3.1 0 0 0-1.389.9c-.404.406-.762.991-.986 1.712-.269.72-.359 1.666-.359 2.792l-2.464-1.036q0-2.364.941-4.323c.627-1.307 1.523-2.343 2.733-3.108s2.644-1.171 4.391-1.171c1.389 0 2.509.225 3.405.675q1.345.675 2.151 1.757c.538.72.896 1.486 1.165 2.297.269.81.403 1.576.493 2.297q.134 1.08.134 1.757v10.449zM172.269 51.48c-1.837 0-3.495-.405-4.884-1.26a8.9 8.9 0 0 1-3.226-3.468c-.761-1.487-1.165-3.198-1.165-5.135 0-1.982.404-3.693 1.165-5.134.762-1.487 1.882-2.613 3.271-3.468 1.389-.811 3.002-1.262 4.839-1.262 1.882 0 3.495.406 4.884 1.261a8.9 8.9 0 0 1 3.226 3.469c.762 1.486 1.165 3.197 1.165 5.134s-.403 3.648-1.165 5.135-1.837 2.657-3.226 3.468c-1.389.855-3.002 1.26-4.884 1.26m0-3.873c1.658 0 2.868-.54 3.674-1.666.807-1.126 1.21-2.522 1.21-4.279q0-2.702-1.21-4.324c-.806-1.08-2.016-1.621-3.674-1.621-1.12 0-2.016.27-2.733.766-.717.495-1.254 1.216-1.613 2.071q-.538 1.352-.538 3.108 0 2.703 1.21 4.324c.896 1.08 2.106 1.621 3.674 1.621M190.952 51.536c-1.389 0-2.509-.225-3.405-.675q-1.345-.675-2.151-1.757c-.538-.72-.896-1.486-1.165-2.297a11.8 11.8 0 0 1-.493-2.297c-.09-.72-.09-1.306-.09-1.756v-10.45h4.212v9.008c0 .586.045 1.216.135 1.937.089.72.268 1.396.537 2.072.314.675.717 1.216 1.3 1.621.582.406 1.344.63 2.33.63.537 0 1.03-.09 1.568-.27.537-.18.986-.45 1.389-.9.403-.406.762-.991.986-1.757.268-.72.358-1.666.358-2.792l2.464 1.036q0 2.364-.941 4.323c-.627 1.307-1.523 2.343-2.733 3.108q-1.68 1.216-4.301 1.216m6.049-.54v-5.81h-.493V32.304h4.167v18.692zM212.011 51.491c-2.285 0-4.167-.54-5.6-1.576-1.434-1.036-2.286-2.478-2.599-4.37l4.256-.675c.224.901.717 1.667 1.434 2.162q1.143.81 2.823.81c.986 0 1.792-.18 2.33-.585q.807-.608.806-1.621c0-.406-.089-.766-.313-1.036s-.628-.495-1.3-.766a43 43 0 0 0-3.136-.9c-1.568-.406-2.823-.856-3.719-1.352-.896-.495-1.568-1.036-1.971-1.711-.404-.676-.583-1.442-.583-2.387 0-1.171.314-2.162.896-3.063.627-.856 1.479-1.531 2.554-1.982 1.075-.45 2.375-.72 3.853-.72 1.434 0 2.734.225 3.854.675s2.016 1.081 2.733 1.937a5.6 5.6 0 0 1 1.255 2.927l-4.257.766q-.135-1.215-1.075-1.892c-.628-.45-1.434-.72-2.465-.765-.985-.045-1.747.09-2.374.45-.583.36-.897.856-.897 1.486 0 .36.135.676.359.901.224.27.717.496 1.434.766s1.837.586 3.27.946c1.479.36 2.644.81 3.54 1.306.896.495 1.524 1.08 1.927 1.756s.582 1.487.582 2.478c0 1.891-.672 3.378-2.061 4.414-1.299 1.08-3.181 1.621-5.556 1.621M231.232 51.48q-2.823 0-4.974-1.215c-1.434-.811-2.554-1.937-3.316-3.423q-1.209-2.162-1.209-5c0-2.026.403-3.828 1.165-5.314.761-1.487 1.881-2.658 3.27-3.514 1.389-.81 3.002-1.26 4.84-1.26 1.926 0 3.584.45 4.928 1.35s2.33 2.163 3.002 3.829.896 3.603.762 5.81h-4.122v-1.531q0-3.04-1.076-4.46c-.716-.945-1.792-1.395-3.315-1.395-1.703 0-2.957.54-3.809 1.576-.806 1.036-1.254 2.612-1.254 4.639 0 1.892.403 3.378 1.254 4.414.807 1.036 2.016 1.576 3.63 1.576 1.03 0 1.881-.225 2.643-.675s1.299-1.126 1.703-1.982l4.077 1.261c-.717 1.667-1.792 2.973-3.316 3.919-1.478.945-3.091 1.396-4.883 1.396m-6.408-8.692v-3.153h12.77v3.153zM26.748 23.923 48.03 50.45a22.6 22.6 0 0 0 1.12-6.981 22.3 22.3 0 0 0-2.733-10.765v-.045a20 20 0 0 0-1.703-2.612L26.748 2.394 8.827 30.093c-.628.856-1.21 1.712-1.703 2.612v.045a22.3 22.3 0 0 0-2.733 10.72c0 2.432.403 4.774 1.12 6.98z"/><path fill="#0C1A3D" d="M47.18 52.75q-.066 0 0 0L26.75 38.697 6.365 52.706l-3.988 3.153 4.705-1.712c3.763 7.026 11.156 11.846 19.668 11.846 8.513 0 15.906-4.775 19.67-11.846l4.748 1.712zm-21.729 6.26h-4.794v-4.819h4.794zm0-6.98h-4.794v-4.82h4.794zm7.437 6.98H28.05v-4.819h4.794v4.82zm0-6.98H28.05v-4.82h4.794v4.82z"/></svg>