<svg xmlns="http://www.w3.org/2000/svg" width="188" height="50" fill="none"><path fill="#0C1A3D" d="M54.268 33.015c-1.51 0-2.837-.323-3.89-.967s-1.877-1.564-2.472-2.714c-.549-1.196-.87-2.577-.87-4.187s.275-3.036.87-4.187c.55-1.15 1.373-2.07 2.472-2.714s2.38-.966 3.89-.966c1.099 0 2.06.184 2.93.506.869.322 1.601.828 2.242 1.472l-.686 1.426c-.687-.598-1.373-1.058-2.06-1.334s-1.465-.414-2.38-.414q-2.61 0-3.982 1.656c-.915 1.105-1.373 2.623-1.373 4.601 0 1.979.458 3.497 1.373 4.6q1.373 1.657 3.982 1.657c.915 0 1.693-.138 2.38-.414q1.03-.414 2.06-1.38l.686 1.472c-.64.644-1.373 1.104-2.243 1.472-.87.23-1.876.414-2.929.414M62.412 32.833V17.467h1.785v13.802h7.735v1.564zM73.811 32.833V17.467h9.749v1.472h-8.01v5.337h7.506v1.518H75.55v5.52h8.01v1.52zM85.482 32.833l6.728-15.366h1.556l6.866 15.366h-1.877l-1.922-4.37.824.46H88.32l.87-.46-1.877 4.37zm7.506-13.296-3.524 8.281-.503-.414h8.055l-.412.414zM102.503 32.833V17.467h1.419l9.795 13.066h-.504V17.467h1.648v15.366h-1.373l-9.795-13.112h.458v13.066h-1.648zM117.608 32.833V17.467h10.298v2.208h-7.598v4.233h7.094v2.208h-7.094v4.463h7.598v2.208h-10.298zM130.515 32.833V17.467h2.106l8.879 11.548h-.549V17.467h2.608v15.366h-2.105l-8.833-11.548h.549v11.548zM146.488 32.833V17.467h10.298v2.208h-7.598v4.233h7.095v2.208h-7.095v4.463h7.598v2.208h-10.298zM159.394 32.833V17.467h6.683c1.693 0 2.975.414 3.89 1.196s1.373 1.932 1.373 3.358c0 .966-.229 1.749-.641 2.439q-.618 1.035-1.785 1.518a6.9 6.9 0 0 1-2.7.552l.32-.414h.733c.595 0 1.144.138 1.647.46.458.322.87.828 1.19 1.472l2.243 4.831h-3.067l-2.242-5.015c-.183-.506-.504-.828-.916-1.012s-.915-.23-1.464-.23h-2.38v6.257h-2.884zm2.792-8.327h3.433c.961 0 1.739-.23 2.243-.644s.778-1.012.778-1.84c0-.783-.275-1.38-.778-1.795-.504-.414-1.282-.598-2.243-.598h-3.433zM181.546 33.02c-1.739 0-3.158-.322-4.348-.966a6.3 6.3 0 0 1-2.654-2.715c-.595-1.196-.87-2.576-.87-4.186s.32-3.037.961-4.233a6.64 6.64 0 0 1 2.746-2.76c1.19-.645 2.609-.967 4.303-.967 1.098 0 2.105.138 2.929.46.824.276 1.556.736 2.197 1.288l-.916 2.163a9.3 9.3 0 0 0-1.327-.874c-.412-.23-.869-.368-1.281-.46a8 8 0 0 0-1.557-.139c-1.693 0-2.929.46-3.798 1.427-.87.966-1.282 2.3-1.282 4.095s.412 3.128 1.236 4.048q1.236 1.38 3.844 1.38c.595 0 1.19-.046 1.785-.184s1.19-.276 1.785-.506l-.503 1.197v-4.601h-3.57v-2.07h5.904v7.407c-.686.368-1.556.644-2.517.828a12.4 12.4 0 0 1-3.067.368M193.95 32.83v-7.27l.595 1.657-6.591-9.8h3.249l4.532 6.994h-.595l4.531-6.994h3.112l-6.545 9.8.549-1.656v7.27zM31.205 29.89a8.54 8.54 0 0 0-7.186 3.911v-11.870000000000001c4.806-1.058 8.467-5.337 8.467-10.536 0-.874-.091-1.748-.32-2.576h-4.897V3.114H23.79v5.705h-4.119V3.114h-3.478v5.705h-4.897c-.183.828-.32 1.702-.32 2.576 0 5.107 3.523 9.34 8.237 10.49V33.48c-1.556-2.163-4.119-3.59-6.956-3.59H3.653v8.65c0 4.785 3.844 8.65 8.604 8.65h18.948c4.76 0 8.604-3.865 8.604-8.65v-8.65zM19.214 45.534h-5.538c-3.067 0-5.538-2.484-5.538-5.567v-5.613h5.538c3.066 0 5.538 2.53 5.538 5.613zm16.11-5.567c0 3.083-2.472 5.567-5.538 5.567h-5.538v-5.567c0-3.082 2.471-5.567 5.538-5.567h5.538z"/><path fill="#0C1A3D" d="M30.061 11.535a10.63 10.63 0 0 1-5.812 9.156 9.25 9.25 0 0 0 6.865-8.65c0-.644-.046-1.242-.137-1.84h-.962c.046.414.046.874.046 1.334"/></svg>