<svg width="243" height="68" viewBox="0 0 243 68" fill="none" xmlns="http://www.w3.org/2000/svg">
<path d="M66.892 51.4807C65.0101 51.4807 63.4419 51.0754 62.1425 50.2196C60.8431 49.3639 59.8574 48.1928 59.1853 46.7516C58.5132 45.2653 58.1548 43.5538 58.1548 41.6171C58.1996 39.6353 58.5132 37.9238 59.2301 36.4375C59.9022 34.9512 60.9328 33.7802 62.1873 32.9695C63.4867 32.1588 65.0549 31.7534 66.892 31.7534C68.7738 31.7534 70.4317 32.2038 71.8206 33.1496C73.2096 34.0504 74.1506 35.3566 74.6882 36.933L72.2239 37.7437C71.7758 36.6177 71.1037 35.7619 70.1628 35.1314C69.2219 34.5008 68.1017 34.2306 66.892 34.2306C65.5478 34.2306 64.3828 34.5459 63.4867 35.1764C62.5906 35.807 61.9185 36.6627 61.4704 37.7887C61.0224 38.9147 60.7983 40.1758 60.7983 41.6621C60.8431 43.9141 61.336 45.7157 62.3666 47.0669C63.3971 48.418 64.8757 49.0936 66.892 49.0936C68.1465 49.0936 69.2219 48.8234 70.118 48.2379C71.0141 47.6524 71.6862 46.7966 72.1343 45.6706L74.6882 46.4363C74.0161 48.1028 72.9856 49.3639 71.6414 50.2196C70.342 51.0754 68.729 51.4807 66.892 51.4807Z" fill="#0C1A3D"></path>
<path d="M77.8694 50.9912V25.5438H80.3785V50.9912H77.8694Z" fill="#0C1A3D"></path>
<path d="M92.7423 51.4807C90.9501 51.4807 89.3371 51.0754 88.0377 50.2647C86.6935 49.454 85.663 48.328 84.9461 46.8417C84.2292 45.3554 83.8259 43.6439 83.8259 41.7072C83.8259 39.6804 84.1844 37.8788 84.9013 36.3925C85.6182 34.9062 86.6487 33.7352 87.9481 32.9695C89.2475 32.1588 90.8157 31.7534 92.6079 31.7534C94.445 31.7534 96.0132 32.1588 97.3126 33.0145C98.6119 33.8703 99.5977 35.0863 100.27 36.6627C100.942 38.2391 101.255 40.1308 101.166 42.3377H98.5671V41.4369C98.5223 39.0048 97.9846 37.2032 96.9989 35.9421C96.0132 34.726 94.5794 34.0955 92.6527 34.0955C90.6364 34.0955 89.113 34.726 88.0825 36.0322C87.0072 37.3383 86.4695 39.1849 86.4695 41.6171C86.4695 43.9591 87.0072 45.8057 88.0825 47.1119C89.1579 48.418 90.6364 49.0486 92.6079 49.0486C93.9521 49.0486 95.1171 48.7333 96.1028 48.1028C97.0885 47.4722 97.895 46.6165 98.4327 45.4454L100.807 46.3462C100.091 47.9676 98.9704 49.2288 97.5814 50.1295C96.1924 51.0303 94.5794 51.4807 92.7423 51.4807ZM85.663 42.3377V40.2209H99.8665V42.3377H85.663Z" fill="#0C1A3D"></path>
<path d="M110.351 51.4807C108.962 51.4807 107.797 51.2105 106.811 50.7151C105.87 50.2196 105.153 49.544 104.705 48.6883C104.212 47.8325 103.988 46.9317 103.988 45.9409C103.988 44.905 104.212 44.0492 104.616 43.3286C105.019 42.6079 105.601 42.0224 106.273 41.572C106.99 41.1216 107.797 40.7613 108.738 40.5361C109.679 40.3109 110.709 40.0857 111.874 39.9056C112.994 39.7254 114.114 39.5903 115.235 39.4552C116.31 39.3201 117.296 39.1849 118.102 39.0498L117.206 39.5903C117.251 37.7437 116.892 36.3925 116.131 35.4917C115.369 34.5909 114.07 34.1405 112.233 34.1405C110.978 34.1405 109.903 34.4107 109.007 34.9963C108.11 35.5818 107.528 36.4826 107.17 37.7437L104.705 37.023C105.108 35.3566 106.005 34.0504 107.259 33.1496C108.558 32.2489 110.216 31.7534 112.277 31.7534C113.98 31.7534 115.414 32.0687 116.624 32.6992C117.833 33.3298 118.64 34.2756 119.133 35.4917C119.357 36.0322 119.491 36.6177 119.581 37.2933C119.67 37.9689 119.67 38.6445 119.67 39.3201V50.9403H117.43V46.2561L118.102 46.5264C117.475 48.1478 116.489 49.3639 115.145 50.1746C113.801 51.0754 112.188 51.4807 110.351 51.4807ZM110.62 49.3188C111.785 49.3188 112.815 49.0936 113.711 48.6883C114.607 48.2829 115.324 47.6974 115.862 46.9317C116.4 46.1661 116.758 45.3554 116.892 44.4095C117.027 43.824 117.116 43.1484 117.116 42.4278C117.116 41.7072 117.116 41.1667 117.116 40.8064L118.102 41.3018C117.251 41.4369 116.31 41.527 115.324 41.6621C114.338 41.7972 113.353 41.9324 112.367 42.0675C111.381 42.2026 110.53 42.3827 109.723 42.6079C109.186 42.7431 108.693 42.9683 108.2 43.2385C107.707 43.5087 107.304 43.8691 106.99 44.3194C106.677 44.7698 106.497 45.3103 106.497 45.9859C106.497 46.5264 106.632 47.0669 106.901 47.5623C107.17 48.0577 107.618 48.5081 108.2 48.8234C108.827 49.1387 109.634 49.3188 110.62 49.3188Z" fill="#0C1A3D"></path>
<path d="M124.105 50.9853V32.2939H126.39V36.8879H126.659V50.9853H124.105ZM137.591 50.9853V41.4369C137.591 40.401 137.502 39.4552 137.278 38.5544C137.098 37.6986 136.785 36.933 136.337 36.2574C135.889 35.6268 135.351 35.0863 134.679 34.726C134.007 34.3657 133.156 34.1856 132.17 34.1856C131.274 34.1856 130.467 34.3207 129.795 34.6359C129.123 34.9512 128.541 35.4016 128.092 35.9871C127.644 36.5726 127.286 37.2933 127.017 38.104C126.748 38.9147 126.659 39.8605 126.659 40.9415L124.866 40.5361C124.866 38.5994 125.18 37.023 125.852 35.7169C126.524 34.4108 127.42 33.4199 128.585 32.7443C129.75 32.0687 131.094 31.7534 132.618 31.7534C133.738 31.7534 134.724 31.9336 135.53 32.2939C136.382 32.6542 137.054 33.1046 137.636 33.6901C138.219 34.2756 138.667 34.9512 139.025 35.7169C139.384 36.4826 139.652 37.2933 139.787 38.104C139.966 38.9597 140.011 39.8155 140.011 40.6262V50.8952H137.591V50.9853Z" fill="#0C1A3D"></path>
<path d="M143.865 50.9867V26.0798H147.584V39.1863H148.077V50.9867H143.865ZM156.769 50.9867V41.9788C156.769 41.3933 156.724 40.7177 156.635 40.0421C156.545 39.3215 156.366 38.6459 156.097 37.9703C155.783 37.2947 155.38 36.7542 154.798 36.3488C154.215 35.9435 153.453 35.7183 152.468 35.7183C151.93 35.7183 151.437 35.8084 150.9 35.9885C150.362 36.1687 149.914 36.4389 149.511 36.8893C149.107 37.2947 148.749 37.8802 148.525 38.6008C148.256 39.3215 148.166 40.2673 148.166 41.3933L145.702 40.3574C145.702 38.781 146.016 37.3397 146.643 36.0336C147.27 34.7274 148.166 33.6915 149.376 32.9258C150.586 32.1602 152.02 31.7548 153.767 31.7548C155.156 31.7548 156.276 31.98 157.172 32.4304C158.069 32.8808 158.785 33.4663 159.323 34.1869C159.861 34.9076 160.219 35.6733 160.488 36.484C160.757 37.2947 160.891 38.0603 160.981 38.781C161.071 39.5016 161.115 40.0871 161.115 40.5375V50.9867H156.769Z" fill="#0C1A3D"></path>
<path d="M172.269 51.4807C170.432 51.4807 168.774 51.0754 167.385 50.2196C165.996 49.3639 164.921 48.1928 164.159 46.7516C163.398 45.2653 162.994 43.5538 162.994 41.6171C162.994 39.6353 163.398 37.9238 164.159 36.4826C164.921 34.9963 166.041 33.8703 167.43 33.0145C168.819 32.2038 170.432 31.7534 172.269 31.7534C174.151 31.7534 175.764 32.1588 177.153 33.0145C178.542 33.8703 179.617 35.0413 180.379 36.4826C181.141 37.9689 181.544 39.6804 181.544 41.6171C181.544 43.5538 181.141 45.2653 180.379 46.7516C179.617 48.2379 178.542 49.4089 177.153 50.2196C175.764 51.0754 174.151 51.4807 172.269 51.4807ZM172.269 47.6073C173.927 47.6073 175.137 47.0669 175.943 45.9409C176.75 44.8149 177.153 43.4187 177.153 41.6621C177.153 39.8605 176.75 38.4193 175.943 37.3383C175.137 36.2574 173.927 35.7169 172.269 35.7169C171.149 35.7169 170.253 35.9871 169.536 36.4826C168.819 36.978 168.282 37.6986 167.923 38.5544C167.565 39.4552 167.385 40.4911 167.385 41.6621C167.385 43.4637 167.789 44.905 168.595 45.9859C169.491 47.0669 170.701 47.6073 172.269 47.6073Z" fill="#0C1A3D"></path>
<path d="M190.952 51.5363C189.563 51.5363 188.443 51.3111 187.547 50.8607C186.65 50.4103 185.934 49.8248 185.396 49.1042C184.858 48.3836 184.5 47.6179 184.231 46.8072C183.962 45.9965 183.828 45.2308 183.738 44.5102C183.648 43.7895 183.648 43.204 183.648 42.7536V32.3044H187.86V41.3123C187.86 41.8979 187.905 42.5284 187.995 43.249C188.084 43.9697 188.263 44.6453 188.532 45.3209C188.846 45.9965 189.249 46.5369 189.832 46.9423C190.414 47.3476 191.176 47.5728 192.162 47.5728C192.699 47.5728 193.192 47.4828 193.73 47.3026C194.267 47.1224 194.716 46.8522 195.119 46.4018C195.522 45.9965 195.881 45.4109 196.105 44.6453C196.373 43.9246 196.463 42.9788 196.463 41.8528L198.927 42.8887C198.927 44.4651 198.614 45.9064 197.986 47.2125C197.359 48.5187 196.463 49.5546 195.253 50.3203C194.133 51.131 192.699 51.5363 190.952 51.5363ZM197.001 50.9958V45.1857H196.508V32.3044H200.675V50.9958H197.001Z" fill="#0C1A3D"></path>
<path d="M212.011 51.491C209.726 51.491 207.844 50.9505 206.411 49.9146C204.977 48.8787 204.125 47.4374 203.812 45.5458L208.068 44.8702C208.292 45.771 208.785 46.5366 209.502 47.0321C210.264 47.5725 211.205 47.8428 212.325 47.8428C213.311 47.8428 214.117 47.6626 214.655 47.2573C215.193 46.8519 215.461 46.3114 215.461 45.6358C215.461 45.2305 215.372 44.8702 215.148 44.5999C214.924 44.3297 214.52 44.1045 213.848 43.8343C213.176 43.6091 212.146 43.2938 210.712 42.9335C209.144 42.5281 207.889 42.0777 206.993 41.5823C206.097 41.0869 205.425 40.5464 205.022 39.8708C204.618 39.1952 204.439 38.4295 204.439 37.4837C204.439 36.3127 204.753 35.3218 205.335 34.421C205.962 33.5652 206.814 32.8897 207.889 32.4393C208.964 31.9889 210.264 31.7186 211.742 31.7186C213.176 31.7186 214.476 31.9438 215.596 32.3942C216.716 32.8446 217.612 33.4752 218.329 34.3309C219.001 35.1416 219.449 36.1325 219.584 37.2585L215.327 38.0242C215.237 37.2135 214.879 36.5829 214.252 36.1325C213.624 35.6821 212.818 35.4119 211.787 35.3668C210.802 35.3218 210.04 35.4569 209.413 35.8172C208.83 36.1775 208.516 36.673 208.516 37.3035C208.516 37.6638 208.651 37.9791 208.875 38.2043C209.099 38.4746 209.592 38.6998 210.309 38.97C211.026 39.2402 212.146 39.5555 213.579 39.9158C215.058 40.2761 216.223 40.7265 217.119 41.222C218.015 41.7174 218.643 42.3029 219.046 42.9785C219.449 43.6541 219.628 44.4648 219.628 45.4557C219.628 47.3473 218.956 48.8337 217.567 49.8696C216.268 50.9505 214.386 51.491 212.011 51.491Z" fill="#0C1A3D"></path>
<path d="M231.232 51.4807C229.35 51.4807 227.692 51.0754 226.258 50.2647C224.824 49.454 223.704 48.328 222.942 46.8417C222.136 45.4004 221.733 43.7339 221.733 41.8423C221.733 39.8155 222.136 38.0139 222.898 36.5276C223.659 35.0413 224.779 33.8703 226.168 33.0145C227.557 32.2038 229.17 31.7534 231.008 31.7534C232.934 31.7534 234.592 32.2038 235.936 33.1046C237.28 34.0054 238.266 35.2665 238.938 36.933C239.61 38.5994 239.834 40.5361 239.7 42.7431H235.578V41.2117C235.578 39.1849 235.219 37.6986 234.502 36.7528C233.786 35.807 232.71 35.3566 231.187 35.3566C229.484 35.3566 228.23 35.8971 227.378 36.933C226.572 37.9689 226.124 39.5453 226.124 41.572C226.124 43.4637 226.527 44.95 227.378 45.9859C228.185 47.0218 229.394 47.5623 231.008 47.5623C232.038 47.5623 232.889 47.3371 233.651 46.8867C234.413 46.4363 234.95 45.7607 235.354 44.905L239.431 46.1661C238.714 47.8325 237.639 49.1387 236.115 50.0845C234.637 51.0303 233.024 51.4807 231.232 51.4807ZM224.824 42.7881V39.6353H237.594V42.7881H224.824Z" fill="#0C1A3D"></path>
<path d="M26.7481 23.9226L48.0298 50.4509C48.7467 48.2439 49.1499 45.9019 49.1499 43.4697C49.1499 39.5513 48.1642 35.9031 46.4169 32.7053V32.6602C45.924 31.7594 45.3416 30.8587 44.7143 30.0479L26.7481 2.39368L8.82667 30.093C8.19942 30.9487 7.61697 31.8045 7.12413 32.7053V32.7503C5.37679 35.9481 4.39111 39.5963 4.39111 43.4697C4.39111 45.9019 4.79435 48.2439 5.5112 50.4509L26.7481 23.9226Z" fill="#0C1A3D"></path>
<path d="M47.1808 52.7498C47.136 52.7498 47.136 52.7498 47.1808 52.7498L26.7503 38.6975L6.36472 52.7048L2.3772 55.8576L7.08157 54.1461C10.8451 61.1722 18.2377 65.9915 26.7503 65.9915C35.263 65.9915 42.6556 61.2173 46.4191 54.1461L51.1683 55.8576L47.1808 52.7498ZM25.451 59.0103H20.6571V54.1911H25.451V59.0103ZM25.451 52.0292H20.6571V47.21H25.451V52.0292ZM32.8884 59.0103H28.0496V54.1911H32.8436V59.0103H32.8884ZM32.8884 52.0292H28.0496V47.21H32.8436V52.0292H32.8884Z" fill="#0C1A3D"></path>
</svg>
