<svg xmlns="http://www.w3.org/2000/svg" width="150" height="242" fill="none"><path fill="#00AD3A" d="m97.448 227.771 16.531-.349c5.141-.108 7.977-6.015 4.847-10.094l-9.868-12.863c-3.235-4.217-9.92-2.754-11.099 2.428l-1.002 4.408a6.3 6.3 0 0 1-1.369 2.708l-2.923 3.387c-3.55 4.114-.55 10.49 4.883 10.375"/><path stroke="#0C1A3D" stroke-dasharray="8.16 8.16" stroke-linecap="round" stroke-width="1.486" d="M92.474 210.727C10.636 165.52-8.564 71.86 63.348 64.835c25.508-2.492 45.007 12.685 49.168 33.525 4.66 23.341-8.686 47.676-32.026 52.336C28.806 161.014-25.012 78.141 105.215 1"/></svg>