<svg width="14" height="14" viewBox="0 0 14 14" fill="none" xmlns="http://www.w3.org/2000/svg">
<path d="M4.19992 0.333496H9.79992C11.9333 0.333496 13.6666 2.06683 13.6666 4.20016V9.80016C13.6666 10.8257 13.2592 11.8092 12.5341 12.5343C11.8089 13.2594 10.8254 13.6668 9.79992 13.6668H4.19992C2.06659 13.6668 0.333252 11.9335 0.333252 9.80016V4.20016C0.333252 3.17466 0.740632 2.19116 1.46577 1.46602C2.19091 0.740876 3.17441 0.333496 4.19992 0.333496ZM4.06659 1.66683C3.43007 1.66683 2.81962 1.91969 2.36953 2.36977C1.91944 2.81986 1.66659 3.43031 1.66659 4.06683V9.9335C1.66659 11.2602 2.73992 12.3335 4.06659 12.3335H9.93325C10.5698 12.3335 11.1802 12.0806 11.6303 11.6306C12.0804 11.1805 12.3333 10.57 12.3333 9.9335V4.06683C12.3333 2.74016 11.2599 1.66683 9.93325 1.66683H4.06659ZM10.4999 2.66683C10.7209 2.66683 10.9329 2.75463 11.0892 2.91091C11.2455 3.06719 11.3333 3.27915 11.3333 3.50016C11.3333 3.72118 11.2455 3.93314 11.0892 4.08942C10.9329 4.2457 10.7209 4.3335 10.4999 4.3335C10.2789 4.3335 10.0669 4.2457 9.91066 4.08942C9.75438 3.93314 9.66658 3.72118 9.66658 3.50016C9.66658 3.27915 9.75438 3.06719 9.91066 2.91091C10.0669 2.75463 10.2789 2.66683 10.4999 2.66683ZM6.99992 3.66683C7.88397 3.66683 8.73182 4.01802 9.35694 4.64314C9.98206 5.26826 10.3333 6.11611 10.3333 7.00016C10.3333 7.88422 9.98206 8.73206 9.35694 9.35718C8.73182 9.98231 7.88397 10.3335 6.99992 10.3335C6.11586 10.3335 5.26802 9.98231 4.6429 9.35718C4.01777 8.73206 3.66658 7.88422 3.66658 7.00016C3.66658 6.11611 4.01777 5.26826 4.6429 4.64314C5.26802 4.01802 6.11586 3.66683 6.99992 3.66683ZM6.99992 5.00016C6.46949 5.00016 5.96078 5.21088 5.5857 5.58595C5.21063 5.96102 4.99992 6.46973 4.99992 7.00016C4.99992 7.5306 5.21063 8.0393 5.5857 8.41438C5.96078 8.78945 6.46949 9.00016 6.99992 9.00016C7.53035 9.00016 8.03906 8.78945 8.41413 8.41438C8.7892 8.0393 8.99992 7.5306 8.99992 7.00016C8.99992 6.46973 8.7892 5.96102 8.41413 5.58595C8.03906 5.21088 7.53035 5.00016 6.99992 5.00016Z" fill="white"></path>
</svg>
