<svg xmlns="http://www.w3.org/2000/svg" width="14" height="14" fill="none"><path fill="#fff" d="M4.2.333h5.6A3.87 3.87 0 0 1 13.667 4.2v5.6A3.867 3.867 0 0 1 9.8 13.667H4.2A3.87 3.87 0 0 1 .333 9.8V4.2A3.867 3.867 0 0 1 4.2.333m-.133 1.334a2.4 2.4 0 0 0-2.4 2.4v5.867c0 1.326 1.073 2.4 2.4 2.4h5.866a2.4 2.4 0 0 0 2.4-2.4V4.067c0-1.327-1.073-2.4-2.4-2.4zm6.433 1a.833.833 0 1 1 0 1.667.833.833 0 0 1 0-1.667m-3.5 1a3.333 3.333 0 1 1 0 6.667 3.333 3.333 0 0 1 0-6.667M7 5a2 2 0 1 0 0 4 2 2 0 0 0 0-4"/></svg>