<svg width="440" height="417" viewBox="0 0 440 417" fill="none" xmlns="http://www.w3.org/2000/svg">
<path d="M107.042 78.743C59.3803 31.8861 21.492 124.616 1.18702 170.259C1.68515 192.043 -6.03691 244.339 25.0566 253.17C63.9236 264.209 85.3074 317.474 90.5921 356.526C95.8768 395.578 163.589 437.81 181.194 404.7C198.799 371.589 239.495 363.214 284.846 338.627C330.197 314.041 356.37 274.16 402.426 248.249C448.481 222.338 440.565 198.886 437.162 182.919C433.76 166.953 444.317 133.493 436.016 80.9445C427.714 28.3962 350.218 -26.278 293.609 15.4188C244.485 51.6018 150.925 121.885 107.042 78.743Z" fill="#756E6E"></path>
<path d="M107.042 78.743C59.3803 31.8861 21.492 124.616 1.18702 170.259C1.68515 192.043 -6.03691 244.339 25.0566 253.17C63.9236 264.209 85.3074 317.474 90.5921 356.526C95.8768 395.578 163.589 437.81 181.194 404.7C198.799 371.589 239.495 363.214 284.846 338.627C330.197 314.041 356.37 274.16 402.426 248.249C448.481 222.338 440.565 198.886 437.162 182.919C433.76 166.953 444.317 133.493 436.016 80.9445C427.714 28.3962 350.218 -26.278 293.609 15.4188C244.485 51.6018 150.925 121.885 107.042 78.743Z" fill="url('#paint0_linear_122_69')"></path>
<defs>
<linearGradient id="paint0_linear_122_69" x1="534.722" y1="189.6" x2="0.24994" y2="-61.6952" gradientUnits="userSpaceOnUse">
<stop offset="0.112048" stop-color="#45EE80"></stop>
<stop offset="0.898852" stop-color="#4591EE"></stop>
</linearGradient>
</defs>
</svg>
