<svg xmlns="http://www.w3.org/2000/svg" width="440" height="417" fill="none"><path fill="#756E6E" d="M107.042 78.743C59.38 31.886 21.492 124.616 1.187 170.259c.498 21.784-7.224 74.08 23.87 82.911 38.867 11.039 60.25 64.304 65.535 103.356s72.997 81.284 90.602 48.174 58.301-41.486 103.652-66.073 71.524-64.467 117.58-90.378 38.139-49.363 34.736-65.33c-3.402-15.966 7.155-49.426-1.146-101.974S350.218-26.278 293.609 15.419c-49.124 36.183-142.684 106.466-186.567 63.324"/><path fill="url('#paint0_linear_122_69')" d="M107.042 78.743C59.38 31.886 21.492 124.616 1.187 170.259c.498 21.784-7.224 74.08 23.87 82.911 38.867 11.039 60.25 64.304 65.535 103.356s72.997 81.284 90.602 48.174 58.301-41.486 103.652-66.073 71.524-64.467 117.58-90.378 38.139-49.363 34.736-65.33c-3.402-15.966 7.155-49.426-1.146-101.974S350.218-26.278 293.609 15.419c-49.124 36.183-142.684 106.466-186.567 63.324"/><defs><linearGradient id="paint0_linear_122_69" x1="534.722" x2=".25" y1="189.6" y2="-61.695" gradientUnits="userSpaceOnUse"><stop offset=".112" stop-color="#45EE80"/><stop offset=".899" stop-color="#4591EE"/></linearGradient></defs></svg>