<svg xmlns="http://www.w3.org/2000/svg" width="20" height="19" fill="none"><path fill="#F9DD4E" d="M9.07.612c.345-.816 1.515-.816 1.86 0l2.028 4.82c.145.343.473.579.849.608l5.266.417c.892.071 1.254 1.171.574 1.746L15.635 11.6a.99.99 0 0 0-.324.985l1.225 5.077c.208.86-.74 1.54-1.503 1.08l-4.508-2.721a1.02 1.02 0 0 0-1.05 0l-4.508 2.72c-.764.461-1.711-.219-1.503-1.079l1.225-5.077a.99.99 0 0 0-.324-.985L.353 8.203c-.68-.575-.318-1.675.574-1.746l5.266-.417c.377-.03.704-.265.85-.609z"/><path stroke="#fff" stroke-opacity=".8" stroke-width=".5" d="M12.728 5.528c.181.432.59.725 1.059.762l5.266.417c.675.053.938.878.432 1.306l-4.012 3.395c-.358.303-.515.78-.405 1.235l1.225 5.077c.154.636-.55 1.157-1.13.806l-4.51-2.72a1.27 1.27 0 0 0-1.307 0l-4.508 2.72c-.581.35-1.285-.17-1.131-.806l1.225-5.077a1.24 1.24 0 0 0-.405-1.235L.515 8.013C.009 7.585.272 6.76.947 6.707l5.266-.417c.468-.037.878-.33 1.06-.762L9.3.71c.258-.612 1.14-.612 1.398 0z"/></svg>