<svg width="37" height="37" viewBox="0 0 37 37" fill="none" xmlns="http://www.w3.org/2000/svg">
<path d="M18.5 37C28.7173 37 37 28.7173 37 18.5C37 8.28273 28.7173 0 18.5 0C8.28273 0 0 8.28273 0 18.5C0 28.7173 8.28273 37 18.5 37Z" fill="#6DA6FE"/>
<path d="M18.5859 5C11.0819 5 5 11.0819 5 18.5859C5 26.09 11.0819 32.1719 18.5859 32.1719C26.09 32.1719 32.1719 26.09 32.1719 18.5859C32.1719 14.9827 30.7405 11.5271 28.1926 8.97923C25.6448 6.43137 22.1892 5 18.5859 5ZM18.5859 28.7841C15.8812 28.7841 13.2873 27.7096 11.3748 25.7971C9.46225 23.8846 8.38781 21.2906 8.38781 18.5859C8.38781 15.8812 9.46225 13.2873 11.3748 11.3748C13.2873 9.46225 15.8812 8.38781 18.5859 8.38781C21.2906 8.38781 23.8846 9.46225 25.7971 11.3748C27.7096 13.2873 28.7841 15.8812 28.7841 18.5859C28.7841 21.2906 27.7096 23.8846 25.7971 25.7971C23.8846 27.7096 21.2906 28.7841 18.5859 28.7841Z" fill="white"/>
<path d="M18.3994 23.1866L15 18.0991L18.3994 13L21.7756 18.0991L18.3994 23.1866Z" fill="white"/>
</svg>
