<svg width="225" height="40" viewBox="0 0 225 40" fill="none" xmlns="http://www.w3.org/2000/svg">
<path d="M58.2686 27.3489V8.15845H65.7513C66.9647 8.15845 67.9758 8.40239 68.7848 8.89029C69.5937 9.37818 70.2409 10.0287 70.6453 10.8012C71.0498 11.5737 71.2521 12.4275 71.2521 13.2813C71.2521 14.3384 71.0094 15.2329 70.4836 16.0054C69.9578 16.7779 69.2701 17.2658 68.3803 17.5504L68.3399 16.8999C69.5533 17.1845 70.4836 17.7943 71.1307 18.6482C71.7779 19.502 72.1014 20.5591 72.1014 21.6975C72.1014 22.8359 71.8588 23.8117 71.4138 24.6248C70.9689 25.4787 70.3218 26.0885 69.4724 26.5764C68.623 27.0237 67.5714 27.2676 66.3984 27.2676H58.2686V27.3489ZM61.0998 16.0054H65.7513C66.2771 16.0054 66.722 15.8834 67.1265 15.6801C67.5309 15.4768 67.8545 15.1516 68.0972 14.7857C68.3399 14.3791 68.4612 13.9319 68.4612 13.3626C68.4612 12.6308 68.2185 12.0209 67.7332 11.533C67.2478 11.0451 66.5602 10.8012 65.7513 10.8012H61.0998V16.0054ZM61.0998 24.7062H66.0748C66.6815 24.7062 67.2478 24.5842 67.7736 24.3402C68.259 24.0963 68.6634 23.771 68.9466 23.3238C69.2297 22.8766 69.3915 22.348 69.3915 21.7381C69.3915 21.1689 69.2701 20.6404 69.0275 20.1931C68.7848 19.7459 68.4208 19.3393 67.9354 19.0954C67.45 18.8108 66.9242 18.6888 66.2771 18.6888H61.1403V24.7062H61.0998Z" fill="#0C1A3D"/>
<path d="M75.0935 27.3489V8.15845H77.8439V24.7062H86.4591V27.3083H75.0935V27.3489Z" fill="#0C1A3D"/>
<path d="M96.3265 27.7555C94.8299 27.7555 93.5356 27.4302 92.3626 26.8204C91.2301 26.2105 90.3403 25.3567 89.6931 24.2183C89.046 23.1205 88.7224 21.7788 88.7224 20.2745V8.19911H91.5133V20.1525C91.5133 20.9656 91.6346 21.6975 91.9177 22.3074C92.2009 22.9172 92.5649 23.4458 93.0098 23.8523C93.4547 24.2589 93.9805 24.5842 94.5468 24.7875C95.113 24.9908 95.6793 25.1127 96.286 25.1127C96.8927 25.1127 97.459 24.9908 98.0252 24.7875C98.5915 24.5842 99.1173 24.2589 99.5622 23.8523C100.007 23.4458 100.371 22.9172 100.654 22.3074C100.937 21.6975 101.059 20.9656 101.059 20.1525V8.15845H103.85V20.2745C103.85 21.7788 103.526 23.0799 102.879 24.2183C102.232 25.316 101.342 26.2105 100.209 26.8204C99.1578 27.4302 97.823 27.7555 96.3265 27.7555Z" fill="#0C1A3D"/>
<path d="M107.652 27.3489V8.15845H113.436C113.638 8.15845 114.002 8.15845 114.488 8.15845C114.973 8.15845 115.458 8.1991 115.903 8.28042C117.359 8.48371 118.573 9.01226 119.544 9.90673C120.514 10.8012 121.242 11.899 121.728 13.2407C122.213 14.5824 122.456 16.0867 122.456 17.713C122.456 19.3393 122.213 20.8437 121.728 22.1854C121.242 23.5271 120.514 24.6655 119.544 25.5193C118.573 26.4138 117.359 26.9423 115.903 27.1456C115.458 27.1863 114.973 27.2269 114.488 27.2269C114.002 27.2269 113.638 27.2269 113.436 27.2269H107.652V27.3489ZM109.674 25.4787H113.436C113.8 25.4787 114.205 25.4787 114.609 25.438C115.013 25.3973 115.377 25.3567 115.701 25.316C116.793 25.1127 117.723 24.6655 118.411 23.9743C119.099 23.2831 119.584 22.3887 119.908 21.2909C120.231 20.2338 120.393 19.0547 120.393 17.7537C120.393 16.4526 120.231 15.2736 119.908 14.2165C119.584 13.1594 119.099 12.2649 118.411 11.5737C117.723 10.8825 116.834 10.4353 115.742 10.232C115.458 10.1507 115.094 10.11 114.649 10.11C114.205 10.0694 113.84 10.0694 113.476 10.0694H109.674V25.4787Z" fill="#0C1A3D"/>
<path d="M125.69 27.3489V8.15845H127.642V27.3083H125.69V27.3489Z" fill="#0C1A3D"/>
<path d="M130.301 27.3525L136.853 8.20264H139.442L145.994 27.3525H143.972L137.743 9.3004H138.512L132.323 27.3525H130.301ZM133.213 22.6768V20.8472H143.082V22.6768H133.213Z" fill="#0C1A3D"/>
<path d="M148.38 27.3489V8.15845H150.159L157.642 24.2589L165.084 8.15845H166.904V27.3083H165.084V12.5495L158.289 27.3489H157.035L150.24 12.5495V27.3489H148.38Z" fill="#0C1A3D"/>
<path d="M178.348 27.7539C176.447 27.7539 174.829 27.3473 173.535 26.4935C172.241 25.6397 171.229 24.4606 170.582 22.9563C169.895 21.4519 169.571 19.7443 169.571 17.7521C169.571 15.7598 169.895 14.0522 170.582 12.5479C171.27 11.0435 172.241 9.86445 173.535 9.01064C174.829 8.15682 176.447 7.75024 178.348 7.75024C180.249 7.75024 181.867 8.15682 183.161 9.01064C184.456 9.86445 185.467 11.0435 186.114 12.5479C186.801 14.0522 187.125 15.7598 187.125 17.7521C187.125 19.7443 186.801 21.4519 186.114 22.9563C185.426 24.4606 184.456 25.6397 183.161 26.4935C181.867 27.3066 180.249 27.7539 178.348 27.7539ZM178.348 25.843C179.845 25.843 181.098 25.5177 182.069 24.8265C183.08 24.1353 183.808 23.2002 184.294 21.9805C184.779 20.7607 185.022 19.3377 185.022 17.7521C185.022 16.1664 184.779 14.7434 184.294 13.5236C183.808 12.3039 183.04 11.3688 182.069 10.6776C181.058 9.98642 179.845 9.66116 178.348 9.6205C176.852 9.6205 175.598 9.94576 174.627 10.6369C173.656 11.3281 172.888 12.2633 172.402 13.483C171.917 14.7027 171.634 16.1257 171.634 17.7114C171.634 19.2971 171.877 20.7201 172.362 21.9398C172.847 23.1595 173.616 24.0947 174.586 24.7859C175.598 25.5177 176.852 25.843 178.348 25.843Z" fill="#0C1A3D"/>
<path d="M189.795 27.3489V8.15845H191.737L202.253 23.8523V8.15845H204.195V27.3083H202.253L191.737 11.5737V27.3083H189.795V27.3489Z" fill="#0C1A3D"/>
<path d="M207.915 27.3489V8.15845H213.699C213.901 8.15845 214.265 8.15845 214.751 8.15845C215.236 8.15845 215.721 8.1991 216.166 8.28042C217.622 8.48371 218.836 9.01226 219.806 9.90673C220.777 10.8012 221.505 11.899 221.991 13.2407C222.476 14.5824 222.719 16.0867 222.719 17.713C222.719 19.3393 222.476 20.8437 221.991 22.1854C221.505 23.5271 220.777 24.6655 219.806 25.5193C218.836 26.4138 217.622 26.9423 216.166 27.1456C215.721 27.1863 215.236 27.2269 214.751 27.2269C214.265 27.2269 213.901 27.2269 213.699 27.2269H207.915V27.3489ZM209.937 25.4787H213.699C214.063 25.4787 214.467 25.4787 214.872 25.438C215.276 25.3973 215.64 25.3567 215.964 25.316C217.056 25.1127 217.986 24.6655 218.674 23.9743C219.362 23.2831 219.847 22.3887 220.17 21.2909C220.494 20.2338 220.656 19.0547 220.656 17.7537C220.656 16.4526 220.494 15.2736 220.17 14.2165C219.847 13.1594 219.362 12.2649 218.674 11.5737C217.986 10.8825 217.097 10.4353 216.004 10.232C215.721 10.1507 215.357 10.11 214.912 10.11C214.467 10.0694 214.103 10.0694 213.739 10.0694H209.978V25.4787H209.937Z" fill="#0C1A3D"/>
<path d="M19.6442 1.93618L14.5884 1.81421L2.89917 13.4423L7.63147 13.5643H9.49204H9.93695L16.2062 3.60315L19.6442 1.93618Z" fill="#0C1A3D"/>
<path d="M19.639 1.9353L16.201 3.60227L8.35425 13.5634H10.0126H14.5022L19.8412 1.9353H19.639Z" fill="#0C1A3D"/>
<path d="M48.9273 15.9248H36.874L29.8767 35.5219L48.9273 15.9248Z" fill="#0C1A3D"/>
<path d="M48.9273 15.9248L40.2312 18.7302L29.8767 35.5219L48.9273 15.9248Z" fill="#0C1A3D"/>
<path d="M2.89771 15.9248H14.9105L21.9483 35.5219L2.89771 15.9248Z" fill="#0C1A3D"/>
<path d="M18.0654 15.9248H33.5971L25.5077 38.5712L18.0654 15.9248Z" fill="#0C1A3D"/>
<path d="M28.9473 1.81128L34.0436 13.4394H25.5093L24.9026 4.25075L28.9473 1.81128Z" fill="#0C1A3D"/>
<path d="M22.8417 1.81128H28.9492L25.5112 4.65732V13.4394H17.624L22.8417 1.81128Z" fill="#0C1A3D"/>
<path d="M2.89771 15.9248L11.5534 18.6082L21.9483 35.5219L2.89771 15.9248Z" fill="#0C1A3D"/>
<path d="M18.0654 15.9248L25.8313 18.7708L25.5077 38.5712L18.0654 15.9248Z" fill="#0C1A3D"/>
<path d="M31.7334 1.93643L36.7893 1.81445L48.438 13.4426L43.7057 13.5645H41.8452H41.4002L35.1309 3.6034L31.7334 1.93643Z" fill="#0C1A3D"/>
<path d="M31.7369 1.93555L35.1345 3.60252L42.9812 13.5637H41.3228H36.8737L31.5347 1.93555H31.7369Z" fill="#0C1A3D"/>
</svg>
