<svg width="188" height="50" viewBox="0 0 188 50" fill="none" xmlns="http://www.w3.org/2000/svg">
<path d="M54.2682 33.0145C52.7578 33.0145 51.4305 32.6924 50.3778 32.0483C49.3251 31.4042 48.5012 30.484 47.9062 29.3338C47.357 28.1376 47.0366 26.7574 47.0366 25.1471C47.0366 23.5368 47.3112 22.1106 47.9062 20.9604C48.4555 19.8102 49.2793 18.8901 50.3778 18.2459C51.4762 17.6018 52.7578 17.2798 54.2682 17.2798C55.3666 17.2798 56.3278 17.4638 57.1974 17.7859C58.067 18.1079 58.7993 18.614 59.4401 19.2581L58.7536 20.6844C58.067 20.0863 57.3805 19.6262 56.694 19.3501C56.0074 19.0741 55.2293 18.9361 54.3139 18.9361C52.5747 18.9361 51.2474 19.4882 50.332 20.5923C49.4166 21.6965 48.9589 23.2148 48.9589 25.1931C48.9589 27.1715 49.4166 28.6897 50.332 29.7939C51.2474 30.8981 52.5747 31.4502 54.3139 31.4502C55.2293 31.4502 56.0074 31.3122 56.694 31.0361C57.3805 30.7601 58.067 30.3 58.7536 29.6559L59.4401 31.1281C58.7993 31.7723 58.067 32.2323 57.1974 32.6004C56.3278 32.8304 55.3209 33.0145 54.2682 33.0145Z" fill="#0C1A3D"/>
<path d="M62.4124 32.8332V17.4666H64.1974V31.2689H71.9324V32.8332H62.4124Z" fill="#0C1A3D"/>
<path d="M73.811 32.8332V17.4666H83.5599V18.9388H75.5503V24.2757H83.0564V25.794H75.5503V31.3149H83.5599V32.8332H73.811Z" fill="#0C1A3D"/>
<path d="M85.4822 32.8332L92.2103 17.4666H93.7664L100.632 32.8332H98.7553L96.833 28.4624L97.6568 28.9225H88.3199L89.1895 28.4624L87.313 32.8332H85.4822ZM92.9883 19.5369L89.4641 27.8183L88.9606 27.4042H97.0161L96.6041 27.8183L92.9883 19.5369Z" fill="#0C1A3D"/>
<path d="M102.503 32.8332V17.4666H103.922L113.717 30.5328H113.213V17.4666H114.861V32.8332H113.488L103.693 19.7209H104.151V32.7872H102.503V32.8332Z" fill="#0C1A3D"/>
<path d="M117.608 32.8332V17.4666H127.906V19.6749H120.308V23.9076H127.402V26.116H120.308V30.5788H127.906V32.7872H117.608V32.8332Z" fill="#0C1A3D"/>
<path d="M130.515 32.8332V17.4666H132.621L141.5 29.0145H140.951V17.4666H143.559V32.8332H141.454L132.621 21.2852H133.17V32.8332H130.515Z" fill="#0C1A3D"/>
<path d="M146.488 32.8332V17.4666H156.786V19.6749H149.188V23.9076H156.283V26.116H149.188V30.5788H156.786V32.7872H146.488V32.8332Z" fill="#0C1A3D"/>
<path d="M159.394 32.8332V17.4666H166.077C167.77 17.4666 169.052 17.8806 169.967 18.6628C170.882 19.4449 171.34 20.5951 171.34 22.0213C171.34 22.9875 171.111 23.7696 170.699 24.4597C170.287 25.1499 169.692 25.6559 168.914 25.978C168.136 26.3001 167.267 26.5301 166.214 26.5301L166.534 26.116H167.267C167.862 26.116 168.411 26.254 168.914 26.5761C169.372 26.8982 169.784 27.4042 170.104 28.0484L172.347 32.8792H169.28L167.038 27.8643C166.855 27.3582 166.534 27.0362 166.122 26.8521C165.71 26.6681 165.207 26.6221 164.658 26.6221H162.278V32.8792H159.394V32.8332ZM162.186 24.5058H165.619C166.58 24.5058 167.358 24.2757 167.862 23.8616C168.365 23.4476 168.64 22.8495 168.64 22.0213C168.64 21.2392 168.365 20.6411 167.862 20.227C167.358 19.813 166.58 19.6289 165.619 19.6289H162.186V24.5058Z" fill="#0C1A3D"/>
<path d="M181.546 33.0198C179.807 33.0198 178.388 32.6978 177.198 32.0537C176.008 31.4095 175.139 30.4894 174.544 29.3392C173.949 28.143 173.674 26.7627 173.674 25.1525C173.674 23.5422 173.994 22.116 174.635 20.9198C175.276 19.7235 176.191 18.8034 177.381 18.1593C178.571 17.5152 179.99 17.1931 181.684 17.1931C182.782 17.1931 183.789 17.3311 184.613 17.6532C185.437 17.9292 186.169 18.3893 186.81 18.9414L185.894 21.1038C185.437 20.7357 184.979 20.4597 184.567 20.2296C184.155 19.9996 183.698 19.8616 183.286 19.7696C182.828 19.6775 182.324 19.6315 181.729 19.6315C180.036 19.6315 178.8 20.0916 177.931 21.0578C177.061 22.0239 176.649 23.3582 176.649 25.1525C176.649 26.9468 177.061 28.281 177.885 29.2012C178.709 30.1213 179.99 30.5814 181.729 30.5814C182.324 30.5814 182.919 30.5354 183.514 30.3974C184.109 30.2593 184.704 30.1213 185.299 29.8913L184.796 31.0875V26.4867H181.226V24.4163H187.13V31.8236C186.444 32.1917 185.574 32.4677 184.613 32.6518C183.514 32.9278 182.508 33.0198 181.546 33.0198Z" fill="#0C1A3D"/>
<path d="M193.95 32.8301V25.5609L194.545 27.2171L187.954 17.4175H191.203L195.735 24.4107H195.14L199.671 17.4175H202.783L196.238 27.2171L196.787 25.5609V32.8301H193.95Z" fill="#0C1A3D"/>
<path d="M31.2046 29.8906C28.1839 29.8906 25.5294 31.4548 24.0191 33.8012V25.7959V21.9312C28.8246 20.873 32.486 16.5943 32.486 11.3954C32.486 10.5213 32.3945 9.64712 32.1657 8.81898H27.2686V3.11401H23.7902V8.81898H19.6712V3.11401H16.1929V8.81898H11.2957C11.1127 9.64712 10.9754 10.5213 10.9754 11.3954C10.9754 16.5023 14.4995 20.735 19.2135 21.8852V25.7959V25.9799V33.4792C17.6574 31.3168 15.0944 29.8906 12.2569 29.8906H3.65259V38.54C3.65259 43.3249 7.49705 47.1895 12.2569 47.1895H19.2135H20.8611H22.6003H24.0191H31.2046C35.9644 47.1895 39.8088 43.3249 39.8088 38.54V29.8906H31.2046ZM19.2135 45.5332H13.6756C10.6092 45.5332 8.13779 43.0488 8.13779 39.9663V34.3533H13.6756C16.7421 34.3533 19.2135 36.8838 19.2135 39.9663V45.5332ZM35.3236 39.9663C35.3236 43.0488 32.8522 45.5332 29.7858 45.5332H24.2479V39.9663C24.2479 36.8838 26.7193 34.3993 29.7858 34.3993H35.3236V39.9663Z" fill="#0C1A3D"/>
<path d="M30.0612 11.5354C29.9239 15.5841 27.5897 18.9887 24.2485 20.691C28.0932 19.6788 30.9766 16.2282 31.1139 12.0415C31.1139 11.3974 31.0682 10.7993 30.9766 10.2012H30.0155C30.0612 10.6152 30.0612 11.0753 30.0612 11.5354Z" fill="#0C1A3D"/>
</svg>
