<svg width="150" height="242" viewBox="0 0 150 242" fill="none" xmlns="http://www.w3.org/2000/svg">
<path d="M97.4483 227.771L113.979 227.422C119.12 227.314 121.956 221.407 118.826 217.328L108.958 204.465C105.723 200.248 99.0381 201.711 97.8592 206.893L96.8565 211.301C96.6287 212.302 96.1588 213.232 95.488 214.009L92.5649 217.396C89.0142 221.51 92.0151 227.886 97.4483 227.771Z" fill="#00AD3A"/>
<path d="M92.4741 210.727C10.6358 165.52 -8.5635 71.8596 63.3485 64.8347C88.8558 62.343 108.355 77.5203 112.516 98.3603C117.176 121.701 103.83 146.036 80.4896 150.696C28.8063 161.014 -25.0117 78.1406 105.215 0.999877" stroke="#0C1A3D" stroke-width="1.48584" stroke-linecap="round" stroke-dasharray="8.16 8.16"/>
</svg>
