<svg width="20" height="19" viewBox="0 0 20 19" fill="none" xmlns="http://www.w3.org/2000/svg">
<path d="M9.07088 0.612343C9.41462 -0.204115 10.5854 -0.204114 10.9291 0.612346L12.9579 5.43123C13.1029 5.77543 13.4306 6.01061 13.8067 6.0404L19.0727 6.45748C19.9649 6.52814 20.3267 7.62813 19.6469 8.2034L15.6348 11.5987C15.3482 11.8412 15.223 12.2218 15.3106 12.5843L16.5363 17.661C16.744 18.5211 15.7969 19.201 15.033 18.7401L10.5245 16.0196C10.2025 15.8252 9.7975 15.8252 9.47548 16.0196L4.96699 18.7401C4.20311 19.201 3.25596 18.5211 3.46363 17.661L4.68942 12.5843C4.77698 12.2218 4.65182 11.8412 4.36526 11.5987L0.353062 8.2034C-0.326718 7.62813 0.0350679 6.52814 0.927291 6.45748L6.19336 6.0404C6.5695 6.01061 6.89716 5.77543 7.04207 5.43123L9.07088 0.612343Z" fill="#F9DD4E"/>
<path d="M12.7275 5.52824L12.7275 5.52829C12.9092 5.95968 13.3189 6.25255 13.7869 6.28962L19.0529 6.7067C19.728 6.76016 19.9907 7.58494 19.4854 8.01256L15.4733 11.4078L15.4733 11.4078C15.1152 11.7109 14.9576 12.1878 15.0675 12.643L16.2933 17.7197C16.4469 18.3557 15.7432 18.8766 15.1622 18.5261C15.1622 18.5261 15.1622 18.5261 15.1622 18.5261L10.6537 15.8055C10.2522 15.5632 9.74777 15.5632 9.34631 15.8055L4.83783 18.5261C4.25678 18.8766 3.55308 18.3557 3.70665 17.7197L4.93244 12.643C5.04237 12.1878 4.88489 11.711 4.52677 11.4078L4.52675 11.4078L0.514557 8.01256C0.00924961 7.58494 0.271982 6.76016 0.94703 6.7067L6.21309 6.28962C6.68117 6.25255 7.09084 5.95968 7.27248 5.52824L9.30129 0.709351C9.55915 0.0968828 10.4408 0.0968825 10.6987 0.709353L12.7275 5.52824Z" stroke="white" stroke-opacity="0.8" stroke-width="0.5"/>
</svg>
